<?xml version="1.0" standalone="no"?>
<!DOCTYPE svg PUBLIC "-//W3C//DTD SVG 20010904//EN"
 "http://www.w3.org/TR/2001/REC-SVG-20010904/DTD/svg10.dtd">
<svg version="1.0" xmlns="http://www.w3.org/2000/svg"
 width="1500.000000pt" height="1500.000000pt" viewBox="0 0 1500.000000 1500.000000"
 preserveAspectRatio="xMidYMid meet">
<metadata>
Created by potrace 1.11, written by Peter Selinger 2001-2013
</metadata>
<g transform="translate(0.000000,1500.000000) scale(0.100000,-0.100000)"
fill="#000000" stroke="none">
<path d="M7287 14914 c-4 -4 -7 -23 -7 -41 0 -23 -8 -41 -25 -57 -14 -13 -25
-31 -25 -40 0 -9 -7 -16 -15 -16 -8 0 -15 -5 -15 -10 0 -7 -20 -9 -60 -4 -76
8 -95 2 -78 -26 7 -11 23 -20 36 -20 22 0 48 -39 43 -67 -1 -7 2 -13 7 -13 12
0 3 -50 -12 -70 -21 -29 -36 -60 -36 -76 0 -33 -35 -114 -50 -115 -10 0 -11
-2 -2 -6 20 -8 14 -32 -7 -26 -13 3 -20 -2 -26 -19 -6 -19 -8 -20 -12 -6 -4
16 -9 14 -41 -12 -34 -26 -126 -80 -138 -80 -3 0 -2 9 1 20 8 24 -7 26 -26 4
-16 -19 -83 -54 -105 -54 -9 0 -27 -9 -41 -20 -15 -11 -33 -18 -42 -15 -9 3
-43 -2 -74 -10 -32 -8 -67 -15 -77 -15 -23 0 -124 -44 -162 -71 -14 -11 -29
-19 -32 -19 -9 0 15 41 42 71 38 43 7 46 -41 3 -50 -44 -107 -105 -107 -115 0
-3 -14 -12 -30 -19 -17 -7 -43 -22 -57 -34 -15 -11 -41 -30 -59 -41 -17 -11
-60 -39 -95 -62 -60 -41 -63 -42 -82 -25 -18 16 -20 16 -37 -6 -10 -12 -23
-22 -28 -22 -5 0 -12 -7 -16 -15 -3 -8 -12 -15 -21 -15 -11 0 -14 6 -9 25 10
39 -12 30 -37 -15 -12 -22 -32 -43 -43 -46 -12 -3 -35 -21 -53 -40 -18 -18
-35 -29 -38 -24 -10 16 -20 12 -58 -25 -39 -38 -45 -51 -25 -57 7 -3 5 -13 -7
-32 -12 -19 -20 -23 -26 -15 -5 8 -11 6 -20 -9 -7 -11 -19 -18 -26 -15 -9 4
-13 -5 -15 -28 -3 -76 -6 -88 -28 -124 -15 -24 -25 -33 -30 -25 -5 9 -9 9 -14
1 -4 -6 -2 -11 3 -11 16 0 13 -26 -3 -39 -12 -10 -15 -5 -21 27 -3 22 -1 50 6
67 7 17 15 50 19 75 4 25 10 52 14 61 5 12 1 18 -14 22 -11 3 -24 7 -28 8 -4
2 -9 -10 -12 -26 -3 -15 -10 -30 -17 -32 -7 -3 -9 3 -6 16 3 13 1 21 -7 21 -8
0 -10 12 -5 40 8 44 -3 52 -24 18 -10 -16 -15 -58 -16 -133 -2 -116 -11 -185
-26 -185 -5 0 -9 -7 -9 -15 0 -8 5 -15 11 -15 8 0 7 -5 -1 -15 -10 -12 -10
-21 -1 -42 12 -27 9 -39 -8 -29 -15 9 -30 72 -24 96 4 14 0 20 -10 20 -8 0
-17 -5 -19 -11 -2 -7 -4 5 -4 25 0 22 -6 41 -14 46 -10 7 -15 29 -16 72 -1 85
-2 86 -24 59 -17 -19 -21 -20 -25 -7 -3 9 -7 23 -10 32 -7 21 -25 8 -25 -19 0
-15 -11 -29 -30 -40 -16 -10 -30 -15 -30 -10 -1 4 -7 -3 -14 -17 -16 -31 -6
-161 15 -186 11 -13 11 -18 2 -21 -7 -3 -13 -17 -13 -31 -1 -26 -1 -26 -17 8
-9 19 -18 43 -20 53 -5 28 -22 57 -33 57 -13 0 -13 -57 0 -65 6 -3 10 -26 10
-50 0 -30 5 -45 16 -49 9 -4 14 -9 10 -13 -3 -3 -15 2 -26 12 -27 24 -37 12
-22 -27 17 -45 9 -45 -22 2 -29 45 -33 58 -11 40 13 -10 15 -9 15 9 0 12 -6
24 -14 27 -8 3 -12 12 -9 20 6 15 -34 61 -43 51 -3 -3 0 -16 7 -29 7 -12 14
-43 14 -68 1 -25 7 -55 13 -67 7 -12 12 -35 12 -50 0 -16 6 -35 13 -43 6 -8 2
-6 -10 4 -48 40 -18 -6 58 -90 10 -12 19 -25 19 -29 0 -3 14 -18 30 -32 17
-13 30 -28 30 -32 0 -4 -18 -14 -41 -21 -42 -14 -61 -30 -35 -30 8 0 38 -16
67 -35 30 -19 57 -35 61 -35 5 0 8 -7 8 -15 0 -9 9 -15 23 -15 12 0 29 -4 37
-10 22 -13 -21 -47 -71 -55 -30 -5 -39 -11 -35 -22 7 -17 -48 -73 -71 -73 -8
0 -12 -4 -9 -9 3 -5 -10 -21 -29 -35 -19 -15 -35 -34 -35 -42 0 -17 5 -17 31
-4 10 6 19 7 19 2 0 -11 -92 -98 -111 -105 -10 -3 -23 -23 -29 -44 -7 -21 -26
-55 -42 -76 -18 -23 -28 -44 -24 -53 4 -9 1 -23 -5 -31 -7 -7 -13 -28 -14 -46
-2 -18 -8 -77 -14 -132 -6 -55 -9 -116 -6 -136 4 -22 -1 -60 -10 -95 -10 -33
-18 -77 -20 -99 -5 -67 -16 -129 -27 -152 -6 -12 -7 -34 -4 -50 4 -15 8 -37 9
-48 1 -11 6 -26 10 -32 9 -14 1 -73 -16 -117 -9 -25 -8 -31 12 -47 22 -18 22
-19 7 -106 -8 -48 -15 -107 -15 -130 0 -23 -5 -51 -10 -62 -15 -28 -14 -36 4
-21 9 7 18 11 20 8 3 -2 8 -49 11 -104 3 -54 11 -104 16 -111 5 -7 7 -17 3
-23 -4 -6 -4 -33 0 -59 6 -41 9 -48 26 -44 23 6 37 -25 42 -94 1 -27 9 -59 16
-71 7 -13 10 -35 7 -48 -4 -16 2 -39 18 -69 23 -40 25 -54 23 -140 -2 -53 0
-98 5 -101 4 -3 5 -17 2 -31 -6 -22 -4 -24 14 -19 29 9 33 -4 15 -43 -15 -30
-15 -34 -1 -42 10 -5 14 -17 11 -28 -3 -10 0 -29 7 -40 9 -18 7 -28 -9 -54
-14 -24 -19 -47 -18 -92 l2 -60 40 -1 c36 0 42 -4 58 -37 9 -20 21 -37 26 -37
4 0 9 -48 10 -107 1 -113 20 -187 66 -263 28 -48 45 -88 45 -108 0 -10 11 -33
24 -52 23 -36 40 -96 51 -185 4 -36 3 -46 -4 -35 -9 12 -11 10 -11 -12 0 -17
6 -28 17 -30 17 -3 37 -74 68 -243 8 -44 22 -114 30 -155 9 -41 14 -87 11
-103 -3 -16 0 -38 8 -50 7 -12 23 -98 35 -192 49 -372 124 -721 188 -863 8
-18 23 -56 33 -85 10 -29 25 -65 34 -82 9 -16 16 -37 16 -46 0 -9 8 -27 19
-40 10 -13 44 -73 76 -134 31 -60 65 -119 74 -130 10 -11 31 -42 47 -70 16
-27 35 -59 42 -70 7 -11 18 -31 25 -45 44 -89 101 -152 257 -287 58 -50 127
-112 154 -138 28 -25 70 -58 95 -71 25 -13 62 -34 82 -47 52 -32 254 -149 292
-169 32 -17 164 -49 307 -73 41 -7 100 -18 132 -23 31 -6 65 -8 76 -6 10 3 39
0 63 -7 61 -17 88 -19 94 -8 4 5 -2 9 -11 9 -30 0 -6 13 31 17 26 3 35 0 35
-12 0 -18 31 -20 48 -3 8 8 12 8 12 1 0 -19 30 -23 55 -7 16 11 24 12 27 3 5
-15 192 -15 233 1 17 7 51 13 77 15 26 2 57 10 70 17 13 7 27 11 31 10 5 -1
20 7 34 18 14 11 31 20 38 20 12 0 63 20 145 57 19 9 48 17 65 19 55 5 94 16
106 30 6 8 16 14 21 14 6 0 24 10 41 23 36 25 50 34 98 61 67 37 235 150 276
185 23 20 54 46 70 58 15 12 48 38 71 57 24 20 48 36 52 36 9 0 102 122 170
221 19 29 49 68 66 88 128 150 253 359 299 501 9 30 22 66 28 80 42 102 78
216 70 224 -3 3 -1 11 5 18 5 7 12 33 14 58 5 49 22 167 38 267 6 35 13 134
16 220 2 87 9 172 14 188 13 42 22 168 24 320 1 72 5 135 8 140 3 6 7 30 7 55
1 64 5 86 20 103 6 8 9 26 6 39 -3 13 1 37 9 53 9 17 16 47 16 67 0 21 7 58
15 82 9 25 13 57 9 71 -4 15 -2 25 5 25 6 0 11 6 11 14 0 8 16 37 35 66 19 29
35 55 35 59 0 3 11 18 24 32 15 16 26 42 29 70 16 151 32 235 44 242 9 6 13
35 13 106 0 105 8 125 46 115 30 -8 50 20 36 50 -14 30 -1 50 27 41 17 -5 24
-2 28 14 3 13 12 20 26 18 20 -2 21 2 22 113 1 64 -4 123 -9 133 -8 12 -7 22
2 35 24 34 29 58 22 105 -4 26 -3 50 1 53 5 3 8 17 7 32 -1 15 -1 47 0 71 l2
44 23 -21 c28 -26 42 -28 32 -4 -7 16 -34 129 -35 145 0 4 9 7 20 7 17 0 19 5
14 25 -3 14 -6 37 -5 52 0 16 0 39 1 53 l1 25 20 -27 c11 -16 25 -28 30 -28
14 0 11 26 -5 39 -15 12 -25 76 -29 173 -1 31 -5 60 -9 64 -13 13 -9 21 13 27
14 4 19 11 16 24 -3 10 -9 37 -12 61 -6 38 -5 42 14 42 26 0 26 6 0 61 -24 47
-31 120 -18 157 7 17 3 32 -15 60 -13 20 -27 48 -31 62 -4 14 -11 30 -16 36
-5 6 -10 34 -13 62 -2 29 -12 64 -21 79 -10 14 -18 45 -19 67 -2 44 -19 83
-45 103 -11 8 -12 12 -3 13 20 0 13 23 -18 59 -15 18 -26 39 -24 46 3 6 -2 18
-11 25 -13 11 -13 15 -3 21 10 7 11 12 0 26 -17 25 -33 64 -36 89 -1 11 -17
42 -34 68 -18 26 -32 51 -32 56 0 4 -38 47 -85 94 -47 47 -85 92 -85 99 0 6
-3 22 -6 35 -5 16 -2 22 9 22 15 0 20 13 32 98 6 34 4 42 -9 42 -20 0 -21 14
-1 30 27 23 4 30 -33 10 -40 -22 -62 -25 -62 -10 0 6 -6 10 -13 10 -7 0 -19
16 -27 35 -8 19 -20 35 -27 35 -7 0 -13 9 -13 19 0 11 -4 22 -9 25 -4 3 -11
27 -14 52 -3 28 -11 51 -21 56 -9 5 -16 16 -16 23 0 8 -3 15 -7 15 -9 0 -33
48 -33 66 0 6 -8 14 -19 17 -12 3 -20 17 -25 47 -5 32 -10 41 -22 36 -9 -3
-17 1 -20 12 -17 54 -68 140 -80 135 -17 -6 -18 9 -2 25 10 10 10 17 1 31 -7
10 -9 28 -6 40 4 15 1 21 -12 21 -15 0 -17 6 -12 36 5 28 3 35 -8 30 -8 -3
-19 2 -24 12 -5 9 -13 13 -17 9 -4 -4 -2 -13 4 -19 14 -14 16 -54 3 -63 -11
-6 -31 51 -28 80 1 12 -3 19 -11 17 -7 -1 -17 9 -22 23 -5 14 -14 25 -19 25
-5 0 -16 16 -25 35 -10 20 -21 33 -27 30 -5 -4 -9 0 -9 7 0 8 -5 19 -12 26 -7
7 -13 22 -13 35 0 12 -7 23 -17 25 -11 2 -18 -3 -18 -12 0 -29 -18 -17 -24 17
-8 41 -44 86 -55 69 -11 -18 -33 10 -66 81 -28 59 -51 76 -43 32 3 -14 1 -25
-3 -25 -5 0 -9 -12 -9 -27 l0 -27 -16 22 c-8 12 -21 22 -28 22 -8 0 -16 9 -19
19 -2 11 -15 21 -28 23 -13 2 -23 9 -21 16 1 6 -2 12 -8 12 -5 0 -10 -4 -10
-10 0 -5 -16 2 -36 15 -20 14 -40 25 -43 25 -3 0 -11 10 -16 23 -7 15 -18 21
-33 20 -14 -2 -22 3 -22 13 0 8 -4 13 -9 10 -5 -3 -20 3 -34 14 -18 14 -27 16
-29 8 -3 -8 -14 -3 -32 15 -15 15 -30 27 -34 27 -12 0 -112 76 -165 126 -27
24 -60 52 -75 61 -48 30 -87 65 -104 94 -13 21 -26 29 -46 29 -17 0 -40 12
-60 30 -18 17 -40 30 -49 30 -8 0 -36 15 -62 34 -45 32 -107 65 -225 120 -75
35 -193 111 -228 148 -27 29 -48 36 -48 16 0 -12 -15 -2 -15 10 0 4 -4 13 -8
19 -4 7 -3 22 3 34 8 14 9 24 2 31 -7 7 -14 3 -22 -12 -8 -14 -15 -19 -22 -12
-16 16 8 83 52 141 39 52 48 71 32 71 -15 0 -92 -86 -92 -102 0 -17 -27 -44
-36 -35 -14 13 -22 82 -12 100 10 19 -2 44 -15 31z m-307 -669 c-7 -8 -18 -15
-24 -15 -6 0 -2 7 8 15 25 19 32 19 16 0z m-1733 -957 c-3 -8 -6 -5 -6 6 -1
11 2 17 5 13 3 -3 4 -12 1 -19z m-317 -354 c0 -8 -4 -12 -10 -9 -5 3 -10 10
-10 16 0 5 5 9 10 9 6 0 10 -7 10 -16z m3680 -669 c0 -11 11 -15 40 -15 27 0
43 -5 46 -15 7 -18 34 -19 69 -3 21 10 31 9 55 -5 15 -9 33 -17 39 -17 19 0
111 -64 116 -81 3 -9 20 -23 37 -30 32 -13 78 -54 78 -69 0 -4 15 -21 33 -36
17 -15 31 -32 29 -37 -2 -6 6 -29 16 -51 26 -54 36 -79 33 -90 -1 -4 4 -14 10
-22 14 -17 -5 -46 -26 -38 -17 7 -25 -8 -18 -34 3 -12 16 -25 29 -28 23 -6 34
-24 14 -24 -19 0 -10 -18 13 -24 22 -6 22 -7 -5 -22 -27 -14 -39 -44 -18 -44
6 0 10 -11 10 -24 0 -14 5 -28 10 -31 6 -3 10 -13 10 -21 0 -8 8 -33 19 -54
13 -27 15 -40 7 -43 -7 -3 -3 -11 9 -21 18 -14 18 -15 3 -16 -12 0 -18 -8 -18
-25 0 -14 4 -25 9 -25 5 0 8 -19 6 -42 -3 -41 27 -127 48 -136 4 -2 7 -10 7
-18 0 -9 5 -25 12 -37 7 -12 14 -44 16 -72 2 -27 10 -65 18 -84 8 -18 14 -44
14 -57 0 -13 5 -24 10 -24 6 0 15 -11 20 -25 5 -14 16 -25 24 -25 14 0 40 -74
45 -127 0 -7 8 -13 16 -13 9 0 15 -9 15 -25 0 -16 -6 -25 -15 -25 -18 0 -20
-19 -2 -25 6 -3 13 -21 14 -41 1 -19 6 -41 12 -48 6 -7 9 -44 7 -85 -3 -55 -1
-74 10 -78 19 -7 18 -23 -1 -23 -8 0 -15 -4 -15 -9 0 -11 30 -36 30 -25 1 5 9
-7 19 -27 21 -41 34 -119 20 -119 -13 0 -11 -21 6 -54 18 -35 19 -53 3 -59 -9
-3 -4 -14 15 -34 16 -17 31 -45 34 -63 2 -19 12 -44 20 -57 12 -17 13 -26 4
-37 -14 -17 -4 -73 20 -108 11 -14 19 -31 19 -36 0 -5 7 -23 15 -38 8 -16 15
-45 15 -64 0 -19 6 -46 13 -60 17 -33 22 -97 22 -295 0 -153 -2 -164 -33 -258
-17 -54 -32 -107 -32 -117 0 -10 -4 -22 -10 -25 -5 -3 -10 -19 -10 -36 0 -16
-4 -29 -9 -29 -5 0 -9 -21 -9 -46 -1 -28 -8 -54 -17 -64 -10 -12 -13 -20 -6
-24 12 -8 3 -165 -11 -182 -5 -7 -8 -16 -6 -20 1 -5 -2 -20 -6 -33 -5 -14 -4
-27 3 -34 14 -14 15 -84 1 -92 -5 -3 -10 -15 -10 -25 0 -10 -8 -26 -17 -36
-13 -13 -14 -19 -5 -22 6 -2 12 -10 12 -18 0 -8 -6 -11 -17 -7 -13 5 -15 2
-11 -15 4 -12 3 -22 -2 -22 -15 0 -17 -49 -3 -63 25 -24 45 -136 37 -207 -3
-36 -11 -73 -16 -82 -6 -14 -5 -18 7 -18 17 0 20 -16 5 -25 -7 -4 -6 -13 1
-26 7 -15 7 -24 -1 -35 -7 -7 -10 -21 -6 -29 3 -8 1 -15 -5 -15 -17 0 -20 -25
-8 -56 14 -33 18 -104 7 -104 -5 0 -8 -13 -8 -29 0 -24 -6 -31 -32 -41 l-33
-12 24 -9 c19 -7 22 -12 13 -21 -7 -7 -12 -23 -12 -36 0 -17 -4 -23 -15 -18
-18 6 -35 -22 -35 -58 0 -16 6 -26 15 -26 24 0 17 -17 -10 -24 -28 -7 -34 -26
-9 -26 12 0 15 -5 9 -22 -4 -13 -7 -39 -6 -60 1 -31 -1 -35 -18 -31 -13 3 -20
-2 -24 -19 -4 -13 -22 -39 -41 -58 -20 -19 -36 -43 -36 -52 0 -10 -16 -34 -35
-54 -25 -26 -35 -45 -35 -68 0 -20 -8 -40 -19 -50 -10 -10 -17 -25 -14 -35 4
-18 -23 -32 -66 -35 -8 -1 -16 -7 -19 -15 -4 -11 2 -12 23 -7 20 5 26 3 22 -6
-2 -7 -11 -12 -19 -10 -9 1 -21 -5 -29 -14 -11 -14 -11 -18 4 -29 14 -10 15
-15 5 -21 -7 -5 -17 -9 -23 -9 -5 -1 -9 -6 -7 -13 1 -7 -5 -15 -13 -18 -8 -4
-15 -12 -15 -20 0 -8 -9 -14 -19 -14 -11 0 -23 -5 -26 -10 -4 -6 -11 -8 -16
-5 -5 4 -9 1 -9 -5 0 -7 7 -10 15 -6 10 3 15 -1 15 -13 0 -24 -28 -35 -47 -20
-19 16 -30 2 -15 -21 8 -13 9 -27 2 -42 -6 -15 -9 -18 -9 -7 -1 9 -8 23 -17
30 -15 12 -16 10 -9 -20 7 -31 6 -33 -15 -26 -20 6 -21 5 -15 -24 5 -23 3 -31
-7 -31 -7 0 -24 -16 -37 -36 -20 -29 -29 -34 -49 -29 -20 5 -23 3 -17 -15 8
-25 -10 -27 -24 -3 -5 10 -13 14 -17 10 -4 -4 0 -22 11 -39 l18 -31 -23 6
c-17 4 -28 -1 -43 -19 -11 -14 -26 -23 -33 -20 -8 3 -24 1 -36 -4 -22 -8 -21
-11 2 -14 6 0 9 -5 8 -11 -2 -5 -11 -9 -20 -8 -11 2 -18 -4 -18 -15 -1 -20
-29 -73 -30 -54 0 15 -30 16 -30 0 0 -6 -3 -8 -7 -4 -5 4 1 14 11 22 22 15 20
20 -8 26 -27 4 -42 -48 -18 -62 15 -8 14 -9 -6 -10 -15 0 -26 -9 -32 -25 -10
-27 -30 -34 -30 -10 0 8 -5 15 -12 15 -6 0 -19 7 -28 15 -33 30 -86 -17 -73
-65 6 -22 -11 -28 -23 -8 -5 7 -10 4 -16 -11 -4 -12 -12 -19 -18 -16 -5 3 -10
2 -10 -3 0 -5 -13 -12 -30 -15 -29 -6 -35 -17 -32 -59 1 -10 -4 -18 -12 -18
-9 0 -12 8 -8 26 4 21 2 25 -9 18 -8 -5 -18 -9 -24 -9 -5 0 -10 -11 -10 -25 0
-15 5 -24 13 -22 6 1 12 -2 12 -8 0 -18 -32 -10 -37 9 -3 11 -13 21 -24 24
-12 3 -17 11 -13 20 3 8 -2 17 -11 21 -22 8 -39 -2 -27 -17 5 -7 6 -21 2 -31
-5 -14 -9 -16 -14 -7 -11 17 -43 -17 -48 -50 -2 -15 -10 -24 -20 -24 -10 0
-23 -9 -31 -19 -13 -18 -14 -18 -22 0 -7 17 -8 17 -15 -6 l-8 -25 -1 28 c-1
33 -18 36 -23 5 -2 -15 -10 -23 -23 -23 -13 0 -19 -7 -19 -18 2 -20 -12 -23
-19 -4 -3 9 -12 8 -35 -5 -27 -14 -31 -14 -36 -1 -3 8 -4 19 -1 23 3 5 1 12
-5 15 -6 4 -9 21 -7 38 2 18 2 24 0 15 -2 -10 -11 -18 -19 -18 -9 0 -14 -11
-14 -30 0 -27 -7 -34 -27 -27 -8 2 -9 7 -12 35 0 7 -6 10 -12 6 -6 -3 -9 -17
-6 -30 3 -20 2 -22 -9 -13 -8 6 -23 9 -34 6 -16 -4 -24 1 -32 21 l-11 27 -6
-35 -6 -35 -19 27 c-18 28 -17 37 6 70 10 14 10 20 0 30 -9 9 -12 6 -12 -15 0
-18 -5 -27 -16 -27 -13 0 -15 -7 -11 -30 6 -29 -6 -50 -18 -31 -8 14 -35 2
-35 -15 0 -8 6 -14 13 -15 6 0 3 -4 -8 -8 -13 -6 -23 -4 -28 5 -13 22 -40 17
-34 -6 3 -11 1 -18 -4 -14 -5 3 -9 12 -9 21 0 13 -3 13 -15 3 -15 -13 -14 -14
-30 35 -9 31 -27 16 -19 -17 6 -29 5 -31 -9 -19 -9 7 -20 10 -25 7 -5 -3 -14
6 -20 19 -7 14 -16 25 -22 25 -6 0 -8 -5 -4 -12 5 -7 1 -9 -13 -6 -16 4 -19 2
-16 -13 6 -20 23 -26 23 -8 0 5 5 7 10 4 18 -11 11 -23 -21 -34 -41 -14 -44
-14 -30 3 10 11 8 17 -6 25 -14 8 -16 14 -7 28 6 10 7 29 3 43 -4 16 -7 19 -8
8 -1 -20 -35 -58 -52 -58 -6 0 -8 9 -4 20 7 21 -19 40 -33 25 -4 -4 -1 -10 6
-12 6 -3 12 -10 12 -17 0 -21 22 -37 36 -25 9 7 15 5 23 -9 9 -17 6 -19 -35
-20 -32 -2 -46 2 -50 13 -4 8 -18 15 -33 15 l-26 1 23 18 c29 25 28 28 -8 28
-24 0 -29 -4 -25 -18 4 -13 1 -16 -12 -14 -10 2 -19 4 -20 5 -2 2 -6 3 -10 4
-5 1 -24 6 -43 11 -58 14 -70 13 -70 -7 0 -27 -17 -22 -36 11 l-18 30 -24 -20
c-14 -10 -28 -19 -33 -19 -10 0 -6 66 4 76 13 13 7 34 -8 28 -8 -4 -15 -16
-15 -28 0 -42 -15 -51 -51 -33 -22 10 -36 12 -40 6 -4 -6 -14 -1 -26 13 -10
12 -28 28 -38 34 -12 7 -19 20 -17 33 4 23 -23 30 -31 9 -3 -7 -6 -1 -6 13 -1
30 -25 56 -36 40 -5 -10 -13 -7 -54 16 -2 2 2 10 9 18 11 13 8 17 -19 28 -17
6 -31 15 -31 19 0 4 -8 8 -18 8 -29 0 -32 10 -11 31 23 23 26 48 3 28 -13 -10
-20 -10 -36 0 -15 9 -23 9 -34 0 -11 -9 -14 -8 -14 5 0 9 7 16 15 16 8 0 15 5
15 11 0 8 -11 9 -31 5 l-31 -6 23 19 c22 18 23 20 5 27 -10 4 -21 2 -25 -3 -3
-5 -19 -13 -34 -17 -22 -5 -27 -3 -25 8 2 8 -1 14 -7 13 -5 -1 -8 -13 -7 -27
2 -14 -1 -20 -5 -14 -4 6 -19 14 -33 17 -14 4 -31 11 -39 16 -22 14 4 41 40
41 22 0 29 5 29 20 0 21 -14 27 -24 11 -3 -5 -15 -7 -26 -4 -11 3 -20 0 -20
-6 0 -6 -7 -11 -16 -11 -11 0 -15 6 -11 20 6 22 -8 37 -18 20 -10 -16 -35 -12
-29 4 3 8 -4 19 -16 26 -29 16 -37 5 -15 -20 10 -11 14 -20 9 -20 -16 0 -34
23 -34 42 0 29 -29 78 -45 78 -17 0 -20 16 -6 25 6 3 9 13 9 23 0 9 1 23 3 31
3 11 -7 14 -49 12 -47 -2 -56 1 -87 30 -19 19 -35 37 -35 41 0 4 -11 18 -25
32 -14 14 -25 31 -25 38 0 10 2 10 9 -1 7 -11 13 -10 34 4 30 19 43 45 23 45
-8 0 -16 -7 -20 -15 -3 -8 -10 -15 -17 -15 -6 0 -9 6 -6 14 8 20 -4 28 -20 14
-18 -15 -42 16 -43 55 0 16 -7 30 -16 34 -10 4 -14 13 -10 28 7 27 -3 38 -20
24 -19 -16 -48 -3 -40 17 4 9 1 23 -5 30 -9 11 -8 14 6 14 22 0 14 23 -13 35
-24 11 -31 28 -8 19 8 -3 17 -1 21 5 3 6 0 11 -7 11 -19 0 -38 34 -31 59 4 15
1 21 -12 21 -11 0 -15 5 -10 19 4 13 0 20 -15 24 -11 3 -20 10 -20 16 0 6 7 8
15 5 20 -8 19 5 -5 66 -24 60 -25 81 -6 74 22 -9 29 14 7 26 -16 8 -19 17 -14
45 5 33 4 35 -21 35 -28 0 -34 -18 -13 -39 10 -10 9 -15 -5 -25 -21 -15 -23
-32 -5 -39 8 -4 9 -6 0 -6 -21 -2 -41 28 -42 61 -1 18 -2 44 -4 58 -2 20 4 27
31 35 40 12 45 38 5 29 -16 -4 -33 -11 -40 -16 -13 -11 -18 -4 -28 40 -4 20
-3 32 4 32 6 0 11 7 11 15 0 8 -8 15 -19 15 -11 0 -21 9 -24 22 -4 12 -9 19
-13 15 -8 -8 -44 21 -44 34 0 5 7 6 15 3 12 -5 14 0 9 26 -5 22 -3 35 7 41 11
6 11 11 1 21 -14 14 -16 28 -4 28 5 0 17 -18 27 -40 21 -46 40 -43 32 6 -4 20
-1 34 6 37 9 3 9 9 1 23 -9 15 -8 26 3 48 14 27 13 30 -12 56 -23 24 -25 31
-16 49 7 12 18 21 26 21 8 0 15 5 15 10 0 6 -7 10 -16 10 -14 0 -14 3 -4 15 7
9 9 19 5 23 -4 4 -10 1 -12 -5 -3 -9 -10 -10 -24 -3 -23 13 -26 45 -3 36 12
-4 14 -1 9 13 -3 11 -1 22 5 26 5 3 10 1 10 -4 0 -6 5 -11 11 -11 6 0 8 9 3
23 -9 30 -11 32 -27 18 -20 -16 -51 22 -53 64 0 18 -10 45 -22 60 -17 21 -19
31 -11 46 5 10 14 19 20 19 6 0 7 5 4 10 -5 8 -11 7 -20 0 -8 -7 -19 -9 -25
-5 -13 8 -13 62 0 70 13 8 -6 46 -22 42 -7 -1 -17 19 -22 45 -6 25 -14 49 -18
53 -4 4 -4 13 -1 21 3 8 -1 22 -10 32 -15 18 -28 75 -28 126 0 17 -7 38 -16
48 -12 13 -13 18 -3 18 10 0 9 5 -3 18 -20 22 -22 36 -4 26 9 -6 9 -4 1 7 -19
25 -33 76 -23 86 6 6 1 20 -12 37 -16 21 -24 51 -31 114 -14 133 -19 314 -8
327 7 8 6 23 -1 44 -11 31 -9 58 6 95 7 16 5 18 -13 14 -23 -6 -32 15 -12 27
6 4 9 23 6 43 -3 27 1 40 17 53 16 13 21 27 20 60 -1 24 2 48 6 54 5 5 11 38
14 72 7 66 34 146 47 138 8 -5 70 14 70 22 0 11 -28 31 -36 25 -5 -4 0 3 10
16 11 12 28 22 38 22 15 0 18 5 13 20 -7 21 10 29 69 33 26 2 31 -2 38 -33 4
-19 8 -57 9 -83 2 -57 15 -66 60 -43 26 13 34 14 41 4 10 -17 10 -28 -1 -28
-9 0 -13 -74 -5 -101 7 -24 43 -30 77 -13 31 16 46 8 47 -24 0 -7 12 -18 28
-25 15 -6 32 -18 37 -25 8 -10 17 -11 40 -2 17 6 70 10 120 9 50 -2 95 0 100
3 17 9 56 2 65 -12 13 -20 40 6 40 38 0 20 3 23 12 14 18 -18 26 -15 31 11 l4
22 8 -22 c9 -27 18 -29 35 -8 18 22 8 51 -17 47 -12 -2 -24 2 -28 8 -9 14 -23
13 -27 -3 -2 -10 -14 -7 -43 10 -31 18 -35 23 -19 23 27 0 82 82 91 134 6 35
5 36 -29 36 -41 0 -58 15 -57 50 1 23 2 23 8 -5 5 -26 11 -30 45 -33 l38 -3
-4 39 c-2 31 1 43 15 51 10 7 22 9 28 5 5 -3 21 2 35 11 24 16 26 16 31 -4 3
-12 10 -18 15 -15 6 4 14 0 19 -7 7 -11 11 -11 17 -2 4 7 21 11 37 9 39 -6
105 -34 105 -45 0 -7 21 -17 50 -25 3 0 25 -16 48 -35 30 -23 41 -38 37 -50
-4 -15 2 -18 40 -18 45 0 64 -7 52 -19 -4 -4 -41 -8 -84 -9 -109 -3 -170 -21
-178 -53 -8 -33 -4 -35 35 -16 18 10 56 19 84 20 136 9 196 17 202 25 12 21
-8 55 -52 87 -24 17 -49 32 -54 32 -5 0 -16 12 -24 28 -16 30 -53 67 -76 75
-13 4 -13 6 2 12 10 4 37 -8 78 -35 33 -24 62 -41 64 -39 2 2 7 14 10 27 5 15
3 24 -8 28 -20 8 -21 34 -2 34 7 0 39 -24 70 -53 42 -39 56 -59 56 -80 0 -34
18 -70 31 -62 5 4 9 -1 9 -9 0 -8 9 -21 21 -29 19 -14 20 -18 7 -71 -7 -31
-17 -56 -23 -56 -6 0 -19 -23 -30 -51 -11 -29 -28 -54 -37 -57 -13 -3 -17 -15
-16 -53 0 -48 9 -61 25 -36 4 7 20 20 35 29 21 14 28 15 37 5 6 -8 28 -12 56
-10 42 2 47 0 56 -25 6 -15 7 -40 4 -57 -4 -16 -10 -61 -15 -100 -5 -47 -19
-96 -44 -148 -20 -43 -36 -81 -36 -84 0 -3 -8 -17 -18 -31 -32 -46 -63 -168
-72 -280 -5 -59 -14 -126 -19 -150 -10 -51 2 -185 18 -190 6 -2 11 -14 11 -27
0 -12 9 -43 20 -67 19 -43 22 -46 71 -52 54 -7 129 -35 129 -48 0 -5 13 -8 29
-8 15 0 43 -5 61 -11 30 -11 34 -10 51 12 20 27 39 18 21 -11 -8 -14 -8 -21
-1 -26 12 -7 29 12 29 33 0 6 3 18 6 27 4 11 0 16 -14 16 -23 0 -54 41 -43 59
6 9 19 6 52 -11 24 -13 47 -26 50 -30 6 -10 69 -18 85 -11 14 5 16 103 2 120
-5 6 -15 10 -22 7 -14 -6 -146 124 -146 143 0 7 -4 13 -10 13 -5 0 -16 13 -24
28 -13 25 -87 72 -114 72 -5 0 -12 7 -16 15 -3 8 -13 15 -21 15 -9 0 -23 7
-31 15 -9 8 -12 15 -8 15 3 0 1 7 -6 15 -10 12 -10 27 0 75 7 33 16 60 19 60
17 0 61 116 61 159 0 14 7 39 15 55 8 15 15 35 15 42 0 8 3 14 8 14 4 0 16 17
27 37 17 31 20 53 18 147 -1 61 -2 137 -2 169 0 51 -2 58 -18 55 -13 -2 -19 4
-22 22 -1 14 -6 27 -10 30 -4 3 -13 26 -19 52 -10 37 -9 58 2 100 7 30 12 67
9 83 -3 17 -5 45 -4 63 1 22 -4 32 -14 32 -8 0 -15 7 -15 15 0 8 -3 15 -7 15
-5 0 -9 10 -10 23 -1 12 -5 39 -9 60 -5 32 -4 36 11 31 13 -5 16 -2 13 12 -2
11 -13 20 -26 22 -12 2 -22 8 -22 13 0 6 -9 8 -19 4 -27 -8 -40 32 -15 49 12
9 14 15 6 20 -7 4 -12 2 -12 -3 0 -6 -6 -11 -14 -11 -8 0 -17 -6 -19 -12 -3
-7 -6 -4 -6 8 -1 31 -12 36 -39 18 -22 -15 -24 -14 -20 3 4 21 43 30 63 13 8
-6 19 -9 25 -5 13 8 13 55 0 55 -5 0 -10 -7 -10 -15 0 -13 -4 -14 -21 -5 -11
6 -32 10 -47 8 -25 -3 -27 0 -25 31 2 42 -23 95 -42 87 -7 -2 -25 6 -40 20
-14 13 -33 24 -41 24 -7 0 -13 5 -12 12 2 7 -1 13 -7 13 -5 1 -22 7 -37 13
-15 6 -68 11 -117 11 -96 -1 -113 3 -104 26 3 8 0 15 -6 15 -6 0 -11 -4 -11
-10 0 -5 -16 -10 -36 -10 -19 0 -45 -5 -57 -12 -20 -10 -21 -10 -9 5 24 28 9
35 -43 21 -27 -7 -58 -11 -67 -8 -10 3 -18 1 -18 -5 0 -6 -6 -11 -14 -11 -9 0
-12 7 -9 20 5 18 3 19 -26 9 -25 -9 -38 -8 -66 5 -19 9 -37 21 -40 27 -4 6
-11 6 -18 1 -20 -16 -75 -24 -82 -12 -4 6 -15 8 -24 5 -19 -6 -81 21 -81 36 0
5 11 9 25 9 29 0 34 16 8 24 -27 7 -114 0 -146 -13 -16 -6 -44 -11 -63 -11
l-35 0 22 43 c43 82 43 77 0 77 l-39 0 -51 -106 c-29 -61 -51 -121 -51 -139 0
-21 -6 -35 -16 -39 -9 -3 -14 -12 -11 -19 3 -8 -7 -12 -29 -13 -40 -1 -77 -30
-69 -55 3 -9 1 -20 -5 -24 -5 -3 -10 1 -10 9 0 9 -4 16 -10 16 -12 0 -3 176
11 202 6 12 12 115 14 246 3 183 1 232 -11 257 -8 17 -14 42 -14 55 1 14 -1
77 -4 140 -4 114 14 240 35 240 14 0 11 28 -3 33 -8 4 -4 8 9 12 18 6 21 14
19 41 -1 19 1 34 6 34 4 0 8 7 8 15 0 9 -9 15 -22 15 -20 0 -21 1 -3 20 10 11
30 20 45 20 22 0 31 8 44 34 9 19 16 41 16 49 0 8 10 27 22 42 15 20 18 30 10
33 -17 5 -15 74 3 98 8 10 15 27 15 36 0 10 9 22 20 28 10 6 17 16 15 23 -7
18 32 77 51 77 11 0 14 6 9 20 -6 19 -4 20 22 14 52 -14 87 -4 65 18 -16 16
-15 28 3 28 8 0 15 -5 15 -11 0 -21 45 -4 48 19 3 18 10 22 45 24 60 2 65 2
73 11 4 4 16 7 26 7 10 0 18 5 18 10 0 6 6 10 14 10 8 0 13 -8 12 -17 0 -10 7
-19 17 -21 12 -2 17 3 17 21 0 34 9 38 37 20 18 -12 27 -13 36 -4 14 14 54 14
63 0 3 -6 15 -8 25 -6 11 3 36 1 56 -5 26 -7 38 -7 43 2 5 8 15 4 33 -14 26
-26 47 -34 47 -17 0 13 41 21 59 11 11 -6 22 -4 32 6 15 14 20 12 44 -20 31
-41 54 -49 29 -11 -16 24 -16 25 10 25 14 0 26 6 27 13 0 10 2 10 6 0 9 -24
25 -13 19 12 -7 27 10 36 20 11 3 -8 12 -17 21 -20 12 -5 14 -1 10 15 -6 21
-6 21 18 -1 20 -19 27 -21 40 -10 13 11 19 10 35 -5 25 -22 39 -11 22 16 -12
18 -11 20 5 17 10 -2 19 -13 21 -26 4 -26 17 -29 26 -6 5 13 9 14 20 5 11 -9
15 -9 19 1 4 10 8 10 16 -2 5 -8 11 -12 13 -10 2 3 8 14 14 25 15 28 28 25 32
-6 3 -29 42 -49 42 -22 0 8 5 11 10 8 6 -3 10 -15 10 -26 0 -12 10 -23 26 -29
36 -14 38 -13 51 20 6 17 16 30 22 30 9 0 16 -36 12 -62 0 -5 5 -8 13 -8 8 0
14 11 14 26 0 14 5 31 12 37 9 9 11 3 5 -32 -6 -38 -5 -43 8 -38 13 5 14 2 8
-15 -6 -17 -2 -27 19 -45 34 -28 40 -29 40 -4 0 11 5 23 12 27 8 5 9 -3 5 -29
-6 -41 -2 -45 25 -20 17 15 18 14 18 -23 1 -36 2 -38 15 -20 8 11 15 27 15 37
0 9 7 22 15 29 13 11 15 8 15 -14 0 -19 4 -25 12 -20 27 17 48 11 48 -13 0
-13 5 -23 10 -23 6 0 10 11 10 23 0 13 9 34 20 47 11 13 20 35 20 49 0 21 2
23 10 11 9 -13 11 -13 20 0 7 11 10 11 10 2 0 -7 5 -10 10 -7 6 3 13 -2 17
-12 6 -16 8 -15 13 7 l6 25 16 -30 c15 -28 17 -28 24 -10 9 23 23 35 42 35 9
0 10 -5 2 -19 -15 -28 -12 -41 8 -41 10 0 22 12 28 28 7 17 19 28 32 29 19 2
21 -1 12 -17 -10 -18 -8 -19 16 -10 15 6 39 19 54 30 16 11 33 20 39 20 7 0
24 8 38 17 l26 17 -7 -27 c-8 -32 8 -36 24 -6 6 11 19 19 28 18 9 -1 34 6 55
15 44 19 77 8 77 -26 0 -21 17 -22 65 -2 18 7 18 6 6 -9 -18 -23 -3 -21 39 5
81 49 103 58 141 58 23 0 55 7 72 15 47 21 118 46 150 52 15 3 27 10 27 15 0
5 9 7 20 3 11 -3 28 -2 37 4 27 16 63 13 63 -4z m-910 -139 c0 -2 -8 -10 -17
-17 -16 -13 -17 -12 -4 4 13 16 21 21 21 13z m-2308 -411 c0 -5 -5 -11 -11
-13 -6 -2 -11 4 -11 13 0 9 5 15 11 13 6 -2 11 -8 11 -13z m-8 -56 c-5 -9 -34
-13 -34 -5 0 2 3 12 6 20 5 13 9 14 20 5 8 -6 11 -15 8 -20z m1366 -1349 c0
-5 -4 -10 -9 -10 -6 0 -13 5 -16 10 -3 6 1 10 9 10 9 0 16 -4 16 -10z m10 -40
c0 -5 -4 -10 -10 -10 -5 0 -10 5 -10 10 0 6 5 10 10 10 6 0 10 -4 10 -10z
m-65 -20 c3 -6 -1 -7 -9 -4 -18 7 -21 14 -7 14 6 0 13 -4 16 -10z m75 -10 c0
-5 -4 -10 -10 -10 -5 0 -10 5 -10 10 0 6 5 10 10 10 6 0 10 -4 10 -10z m-1470
-10 c0 -5 -5 -10 -11 -10 -5 0 -7 5 -4 10 3 6 8 10 11 10 2 0 4 -4 4 -10z
m660 -10 c12 -8 9 -10 -13 -10 -16 0 -26 4 -22 10 8 12 16 12 35 0z m745 -10
c8 -13 -5 -13 -25 0 -13 8 -13 10 2 10 9 0 20 -4 23 -10z m65 -20 c0 -5 -4
-10 -10 -10 -5 0 -10 5 -10 10 0 6 5 10 10 10 6 0 10 -4 10 -10z m-838 -27
c-4 -20 -23 -29 -54 -24 -4 0 -23 -8 -41 -18 -18 -10 -48 -22 -67 -26 -28 -6
-32 -5 -27 9 4 10 1 16 -8 16 -8 0 -15 5 -15 10 0 17 48 11 59 -7 6 -10 11
-13 11 -7 0 6 14 14 31 18 18 3 29 11 26 18 -4 15 33 33 67 33 18 0 21 -5 18
-22z m-658 -25 c-10 -20 -19 -28 -22 -20 -2 7 4 22 14 33 25 27 27 24 8 -13z
m706 22 c0 -5 -8 -10 -17 -10 -15 0 -16 2 -3 10 19 12 20 12 20 0z m-270 -50
c0 -5 -7 -10 -15 -10 -8 0 -15 5 -15 10 0 6 7 10 15 10 8 0 15 -4 15 -10z
m433 -21 c31 -1 57 -6 57 -11 0 -4 14 -8 30 -8 17 0 30 -4 30 -10 0 -15 -23
-16 -120 -5 -75 9 -186 9 -200 0 -22 -14 -24 7 -2 23 22 17 51 19 205 11z
m164 -45 c-3 -3 -12 -4 -19 -1 -8 3 -5 6 6 6 11 1 17 -2 13 -5z m-1037 -14 c0
-5 -7 -10 -15 -10 -8 0 -15 5 -15 10 0 6 7 10 15 10 8 0 15 -4 15 -10z m1180
-41 c0 -4 -7 -6 -15 -3 -8 4 -15 10 -15 15 0 4 7 6 15 3 8 -4 15 -10 15 -15z
m480 -9 c0 -11 -4 -20 -9 -20 -5 0 -7 9 -4 20 3 11 7 20 9 20 2 0 4 -9 4 -20z
m-22 -1322 c-2 -6 6 -22 19 -36 25 -27 31 -79 13 -113 -6 -11 -8 -40 -4 -69 6
-44 9 -50 30 -50 13 0 23 -3 23 -7 -4 -24 4 -33 26 -33 30 0 31 -4 7 -28 -24
-24 -98 -24 -135 1 -59 38 -83 72 -95 130 -13 64 -6 121 13 113 14 -5 40 37
31 52 -7 12 22 38 49 45 11 2 22 5 23 6 2 0 2 -4 0 -11z m2689 -590 c-3 -7 -5
-2 -5 12 0 14 2 19 5 13 2 -7 2 -19 0 -25z m-4263 -23 c8 -23 -12 -28 -23 -6
-6 11 -11 22 -11 25 0 11 29 -6 34 -19z m28 -340 c-5 -31 -22 -23 -22 10 0 16
4 23 14 19 8 -3 11 -15 8 -29z m73 -15 c0 -9 -7 -14 -17 -12 -10 2 -18 -3 -18
-11 0 -8 -8 -21 -17 -28 -15 -13 -16 -11 -10 21 4 18 13 38 20 42 18 12 42 5
42 -12z m-20 -80 c-3 -5 -11 -10 -16 -10 -6 0 -7 5 -4 10 3 6 11 10 16 10 6 0
7 -4 4 -10z m4135 -374 c0 -3 -4 -8 -10 -11 -5 -3 -10 -1 -10 4 0 6 5 11 10
11 6 0 10 -2 10 -4z m-3582 -875 c11 -7 10 -10 -3 -15 -19 -7 -35 0 -35 15 0
11 20 12 38 0z m2527 -412 c19 -20 19 -20 -7 -10 -14 5 -29 7 -32 4 -3 -4 -6
-2 -6 4 0 28 21 29 45 2z m-38 -41 c-3 -8 -6 -5 -6 6 -1 11 2 17 5 13 3 -3 4
-12 1 -19z m-35 -40 c-7 -7 -12 -8 -12 -2 0 14 12 26 19 19 2 -3 -1 -11 -7
-17z m-1442 -228 c-18 -11 -24 -6 -16 16 5 14 9 15 19 5 9 -9 9 -14 -3 -21z
m640 -35 c0 -8 -4 -15 -9 -15 -5 0 -11 7 -15 15 -3 9 0 15 9 15 8 0 15 -7 15
-15z"/>
<path d="M7295 11950 c3 -5 8 -10 11 -10 2 0 4 5 4 10 0 6 -5 10 -11 10 -5 0
-7 -4 -4 -10z"/>
<path d="M8856 11093 c-3 -4 -30 -8 -58 -10 -33 -2 -55 -8 -61 -18 -4 -8 -19
-15 -32 -15 -15 0 -26 -7 -30 -20 -4 -12 -15 -20 -28 -20 -27 0 -67 -26 -67
-43 0 -7 -20 -21 -45 -32 -25 -11 -45 -26 -45 -33 0 -11 -9 -13 -33 -8 -25 5
-36 2 -50 -14 -9 -11 -29 -20 -43 -20 -22 0 -24 -2 -14 -15 10 -12 7 -16 -16
-25 -16 -5 -37 -15 -46 -20 -12 -7 -18 -7 -18 0 0 5 -12 10 -26 10 -19 0 -25
-4 -20 -15 3 -9 0 -15 -9 -15 -8 0 -15 -6 -15 -14 0 -8 -16 -16 -42 -20 -23
-4 -56 -17 -73 -30 -17 -13 -44 -26 -61 -30 -17 -4 -41 -18 -53 -31 -11 -14
-27 -25 -34 -25 -18 0 -72 -52 -90 -87 -21 -40 -74 -96 -86 -89 -5 3 -11 -7
-13 -22 -5 -35 24 -41 47 -9 8 11 18 17 22 13 4 -4 0 -12 -10 -17 -9 -6 -17
-19 -17 -29 0 -11 -4 -20 -10 -20 -5 0 -10 -7 -10 -16 0 -10 6 -14 15 -10 8 3
15 1 15 -4 0 -5 -10 -12 -22 -16 -13 -4 -34 -15 -47 -26 l-25 -19 42 7 c47 7
52 1 20 -27 -27 -22 -11 -26 18 -4 22 17 44 19 44 5 0 -5 -5 -10 -11 -10 -6 0
-30 -13 -53 -29 -28 -20 -50 -28 -65 -24 -23 6 -28 -6 -10 -24 8 -8 1 -10 -30
-6 -25 3 -41 2 -41 -5 0 -14 73 -22 85 -8 8 9 32 23 79 44 5 3 5 -1 1 -8 -6
-9 -3 -9 14 0 22 11 22 11 7 -19 -9 -16 -16 -35 -16 -41 0 -6 -11 -23 -24 -37
-14 -15 -33 -42 -43 -62 -10 -20 -24 -44 -31 -53 -26 -32 -8 -41 25 -14 17 15
34 23 36 19 3 -5 0 -30 -6 -56 -10 -46 -9 -49 16 -75 25 -25 27 -25 40 -8 7
10 19 38 25 62 7 24 16 44 22 44 5 0 10 7 10 16 0 19 9 27 93 84 58 39 87 50
87 30 0 -5 -4 -10 -8 -10 -5 0 -24 -27 -43 -61 -18 -33 -42 -65 -51 -70 -10
-5 -18 -14 -18 -20 0 -5 -11 -26 -24 -47 -43 -67 -42 -75 13 -95 27 -9 59 -17
72 -17 14 0 30 -9 36 -19 9 -14 21 -19 40 -16 15 2 38 4 51 4 24 1 30 17 10
24 -18 6 18 -2 42 -9 14 -4 20 -2 20 9 0 13 13 14 78 10 70 -5 82 -3 116 18
83 53 105 187 46 282 -16 26 -30 50 -30 53 0 20 293 -30 325 -56 7 -6 19 -8
27 -5 8 3 25 -6 38 -20 13 -14 28 -25 34 -25 6 0 20 -12 30 -27 16 -21 17 -29
7 -46 -7 -11 -15 -31 -17 -46 -7 -36 -45 -68 -90 -76 -68 -12 -114 -55 -60
-55 13 0 34 -8 47 -19 18 -14 27 -16 41 -8 14 9 20 8 30 -5 12 -16 18 -15 86
12 40 17 79 30 87 30 19 0 75 49 75 66 0 8 10 14 25 14 34 0 63 44 46 71 -6
11 -9 24 -6 29 4 6 -3 23 -14 38 -11 16 -23 40 -26 54 -4 15 -40 62 -82 105
-41 43 -82 86 -90 95 -23 25 -93 60 -93 47 0 -8 -32 -10 -102 -8 -85 3 -102 1
-100 -10 2 -8 -3 -18 -10 -23 -10 -6 -7 -13 12 -28 14 -11 32 -18 40 -17 8 1
15 -5 15 -13 0 -10 9 -14 25 -12 18 2 22 0 13 -9 -8 -8 -34 -8 -99 0 -186 23
-291 19 -392 -15 -49 -16 -72 -18 -72 -5 0 5 23 17 50 26 55 18 62 31 26 45
-38 14 -38 25 -1 43 19 9 35 21 35 25 0 14 69 40 160 59 72 15 81 18 55 24
-38 8 -29 10 71 12 57 2 80 -1 77 -9 -5 -14 20 -24 75 -30 24 -2 42 0 42 6 0
5 4 10 10 10 5 0 7 -7 4 -15 -4 -8 -1 -15 5 -15 6 0 11 7 11 15 0 10 10 15 30
15 20 0 30 5 30 15 0 8 -6 15 -13 15 -20 0 -67 24 -67 34 0 5 8 15 18 23 15
13 10 14 -42 8 -33 -3 -65 -10 -71 -15 -16 -14 -50 -5 -47 12 2 15 -31 31 -42
20 -4 -3 -27 -6 -54 -7 -26 -1 -57 -5 -69 -9 -17 -5 -23 -3 -23 7 0 9 -14 17
-35 21 -19 4 -35 10 -35 15 0 11 45 51 58 51 6 0 24 12 40 28 42 39 67 59 94
73 13 6 35 22 51 35 15 12 47 26 71 29 32 5 43 11 42 23 -1 12 8 18 28 20 16
2 39 10 52 19 13 8 33 13 46 11 22 -3 22 -4 -11 -35 -40 -38 -36 -51 8 -29 16
9 48 16 71 16 38 0 54 13 28 23 -7 3 -8 6 -2 6 5 1 19 -5 29 -13 17 -12 17
-15 4 -28 -8 -8 -25 -20 -37 -27 -24 -13 -21 -34 3 -24 8 3 23 2 33 -2 9 -5
24 -7 32 -6 8 1 21 -8 27 -19 12 -18 10 -20 -19 -28 -17 -4 -34 -14 -36 -21
-5 -16 33 -9 86 16 25 12 38 13 55 5 21 -10 21 -11 1 -11 -37 -2 -99 -40 -66
-41 4 -1 41 -2 82 -3 61 -2 81 -7 108 -26 39 -27 36 -38 -5 -19 -25 13 -43 14
-110 9 -12 -1 -14 -4 -7 -11 9 -9 52 -17 102 -19 6 -1 12 -6 12 -11 0 -6 -11
-8 -25 -6 -41 8 -39 -13 5 -31 22 -10 40 -23 40 -30 0 -7 4 -13 8 -13 5 0 14
-11 20 -24 10 -22 8 -24 -24 -30 -38 -8 -45 -23 -12 -28 19 -3 48 -38 64 -78
24 -62 48 -65 62 -7 6 24 25 76 41 115 31 76 30 96 -1 147 -10 17 -18 39 -18
49 0 11 -11 34 -26 53 -14 18 -22 38 -19 44 4 6 -1 19 -10 29 -9 10 -19 37
-22 59 -3 23 -10 41 -14 41 -5 0 -9 7 -9 16 0 10 -6 13 -19 9 -22 -7 -53 4
-46 16 3 4 -13 20 -35 35 -29 19 -39 32 -35 44 3 11 -1 20 -10 24 -9 3 -21 20
-27 37 -8 23 -24 37 -63 56 -30 13 -56 31 -59 39 -6 15 -31 19 -39 7 -2 -5 -3
-3 -1 3 6 26 -59 48 -80 27z m394 -338 c7 -9 8 -15 2 -15 -5 0 -12 7 -16 15
-3 8 -4 15 -2 15 2 0 9 -7 16 -15z m-1259 -376 c-13 -11 -27 -17 -30 -13 -7 7
28 34 43 34 6 -1 0 -10 -13 -21z m699 -4 c-6 -12 -41 -8 -55 6 -7 7 1 9 25 7
19 -2 33 -7 30 -13z m-819 -59 c-7 -8 -22 -11 -39 -8 l-27 6 30 7 c46 10 48
10 36 -5z m303 -127 c-9 -15 -24 -10 -18 6 7 17 -9 19 -37 5 -31 -17 -22 -4
13 19 l33 20 7 -20 c5 -12 6 -25 2 -30z m586 -24 c0 -8 -9 -15 -20 -15 -22 0
-27 15 -7 23 21 9 27 7 27 -8z m-670 -46 c0 -10 -6 -19 -14 -19 -19 0 -28 14
-20 33 8 21 34 10 34 -14z m213 -114 c-3 -9 -8 -14 -10 -11 -3 3 -2 9 2 15 9
16 15 13 8 -4z m87 -25 c0 -10 -7 -24 -17 -31 -15 -13 -15 -12 -2 9 12 19 12
25 0 45 -13 20 -13 21 2 8 10 -7 17 -21 17 -31z m-86 -26 c3 -8 2 -12 -4 -9
-6 3 -10 10 -10 16 0 14 7 11 14 -7z m596 9 c0 -5 -5 -15 -10 -23 -8 -12 -10
-11 -10 8 0 12 5 22 10 22 6 0 10 -3 10 -7z m-820 -115 c21 -37 21 -38 2 -38
-31 0 -84 31 -78 46 3 7 -2 20 -10 29 -19 19 -10 35 16 28 13 -4 22 1 27 13 6
15 8 13 15 -11 4 -17 17 -47 28 -67z m990 21 c0 -6 -4 -7 -10 -4 -5 3 -10 11
-10 16 0 6 5 7 10 4 6 -3 10 -11 10 -16z m-1099 -39 c31 -17 23 -32 -13 -25
-42 9 -50 14 -43 26 8 12 32 12 56 -1z m867 -89 c3 -8 -1 -12 -9 -9 -7 2 -15
10 -17 17 -3 8 1 12 9 9 7 -2 15 -10 17 -17z"/>
<path d="M7720 10459 c0 -5 5 -7 10 -4 6 3 10 8 10 11 0 2 -4 4 -10 4 -5 0
-10 -5 -10 -11z"/>
<path d="M9080 10421 c0 -11 50 -21 101 -21 54 0 49 16 -7 24 -64 8 -94 8 -94
-3z"/>
<path d="M5305 10410 c-3 -5 -1 -10 4 -10 6 0 11 5 11 10 0 6 -2 10 -4 10 -3
0 -8 -4 -11 -10z"/>
<path d="M6784 10308 c3 -13 6 -29 6 -35 0 -7 4 -13 9 -13 5 0 9 16 9 35 0 25
-5 35 -15 35 -11 0 -14 -6 -9 -22z"/>
<path d="M7678 10253 c7 -3 16 -2 19 1 4 3 -2 6 -13 5 -11 0 -14 -3 -6 -6z"/>
<path d="M8306 10244 c-9 -23 -8 -24 14 -24 11 0 20 2 20 4 0 12 -13 36 -20
36 -4 0 -11 -7 -14 -16z"/>
<path d="M8530 10250 c0 -5 7 -10 16 -10 8 0 12 5 9 10 -3 6 -10 10 -16 10 -5
0 -9 -4 -9 -10z"/>
<path d="M8223 10239 c14 -8 22 -8 30 0 8 8 3 11 -18 11 -26 -1 -28 -2 -12
-11z"/>
<path d="M8470 10240 c0 -5 5 -10 10 -10 6 0 10 5 10 10 0 6 -4 10 -10 10 -5
0 -10 -4 -10 -10z"/>
<path d="M8370 10230 c0 -5 5 -10 10 -10 6 0 10 5 10 10 0 6 -4 10 -10 10 -5
0 -10 -4 -10 -10z"/>
<path d="M9290 10160 c0 -11 4 -20 10 -20 5 0 7 -7 4 -15 -4 -8 -3 -23 0 -32
6 -15 8 -15 16 -3 17 26 11 69 -10 80 -17 9 -20 8 -20 -10z"/>
<path d="M7645 10120 c-3 -5 -1 -10 4 -10 6 0 11 5 11 10 0 6 -2 10 -4 10 -3
0 -8 -4 -11 -10z"/>
<path d="M7585 10090 c-3 -5 1 -10 9 -10 8 0 18 5 21 10 3 6 -1 10 -9 10 -8 0
-18 -4 -21 -10z"/>
<path d="M7593 10053 c-16 -6 -17 -33 -3 -33 11 0 26 28 19 34 -2 2 -10 1 -16
-1z"/>
<path d="M7555 9960 c-13 -21 -12 -126 1 -177 8 -30 14 -63 14 -73 0 -22 51
-53 74 -44 16 6 15 34 -4 79 -15 36 -30 90 -55 203 -6 23 -20 29 -30 12z"/>
<path d="M5265 9860 c-3 -5 1 -10 9 -10 9 0 16 5 16 10 0 6 -4 10 -9 10 -6 0
-13 -4 -16 -10z"/>
<path d="M5192 9770 c-7 -11 -8 -20 -3 -20 9 0 24 30 18 36 -1 2 -8 -6 -15
-16z"/>
<path d="M8436 9763 c-13 -14 -5 -23 19 -21 14 1 25 3 25 5 0 7 -38 21 -44 16z"/>
<path d="M8505 9760 c-8 -13 -9 -12 28 -28 22 -9 28 -10 25 -1 -7 21 -45 42
-53 29z"/>
<path d="M8595 9760 c3 -5 8 -10 11 -10 2 0 4 5 4 10 0 6 -5 10 -11 10 -5 0
-7 -4 -4 -10z"/>
<path d="M8627 9763 c-10 -16 2 -43 19 -43 8 0 14 5 14 10 0 6 -4 10 -9 10 -5
0 -11 8 -13 18 -2 11 -6 13 -11 5z"/>
<path d="M8211 9734 c0 -11 3 -14 6 -6 3 7 2 16 -1 19 -3 4 -6 -2 -5 -13z"/>
<path d="M8230 9730 c0 -11 5 -20 10 -20 6 0 10 9 10 20 0 11 -4 20 -10 20 -5
0 -10 -9 -10 -20z"/>
<path d="M8276 9732 c-3 -6 -1 -14 5 -17 15 -10 25 3 12 16 -7 7 -13 7 -17 1z"/>
<path d="M8376 9717 c3 -10 9 -15 12 -12 3 3 0 11 -7 18 -10 9 -11 8 -5 -6z"/>
<path d="M6265 9710 c-3 -5 4 -14 15 -20 11 -6 20 -16 20 -23 0 -7 7 -22 15
-33 13 -18 14 -17 15 18 0 31 -5 39 -30 51 -16 9 -32 11 -35 7z"/>
<path d="M8316 9693 c1 -29 27 -44 45 -26 14 14 0 43 -17 36 -8 -3 -14 0 -14
6 0 6 -4 11 -8 11 -4 0 -7 -12 -6 -27z"/>
<path d="M8515 9700 c3 -5 8 -10 11 -10 2 0 4 5 4 10 0 6 -5 10 -11 10 -5 0
-7 -4 -4 -10z"/>
<path d="M8222 9689 c2 -7 10 -15 17 -17 8 -3 12 1 9 9 -2 7 -10 15 -17 17 -8
3 -12 -1 -9 -9z"/>
<path d="M8442 9679 c2 -7 10 -15 17 -17 8 -3 12 1 9 9 -2 7 -10 15 -17 17 -8
3 -12 -1 -9 -9z"/>
<path d="M6220 9655 c0 -8 5 -15 10 -15 6 0 10 7 10 15 0 8 -4 15 -10 15 -5 0
-10 -7 -10 -15z"/>
<path d="M7640 9639 c0 -5 5 -7 10 -4 6 3 10 8 10 11 0 2 -4 4 -10 4 -5 0 -10
-5 -10 -11z"/>
<path d="M7400 9630 c0 -5 7 -10 15 -10 8 0 15 5 15 10 0 6 -7 10 -15 10 -8 0
-15 -4 -15 -10z"/>
<path d="M7680 9129 c0 -5 4 -9 10 -9 5 0 7 -6 4 -14 -3 -7 9 -35 25 -62 17
-26 31 -53 31 -60 0 -21 29 -39 43 -25 9 9 15 7 27 -9 l16 -21 19 22 c15 17
16 21 4 17 -10 -4 -19 4 -28 23 -7 15 -22 31 -33 35 -14 4 -17 8 -8 14 18 11
-10 51 -32 44 -12 -4 -17 2 -20 23 -2 22 -8 28 -30 30 -16 1 -28 -2 -28 -8z"/>
<path d="M7845 9010 c10 -11 25 -20 33 -20 12 0 12 4 -3 20 -10 11 -25 20 -33
20 -12 0 -12 -4 3 -20z"/>
<path d="M7894 8958 c-4 -6 4 -20 19 -32 15 -12 30 -37 33 -56 9 -45 31 -97
44 -105 12 -8 12 -8 -1 57 -7 29 -23 74 -36 101 -25 46 -45 58 -59 35z"/>
<path d="M7915 8870 c-7 -12 2 -30 16 -30 5 0 9 9 9 20 0 21 -15 27 -25 10z"/>
<path d="M7990 8693 c0 -10 5 -25 10 -33 8 -12 10 -9 10 12 0 15 -4 30 -10 33
-5 3 -10 -2 -10 -12z"/>
<path d="M7703 8612 c-13 -2 -23 -8 -23 -13 0 -5 -8 -9 -18 -9 -21 0 -76 -56
-121 -123 -19 -28 -49 -56 -72 -68 -39 -19 -41 -20 -45 -2 -7 25 -61 46 -85
32 -22 -11 -22 -11 -7 -44 11 -26 22 -29 92 -26 34 1 38 -1 33 -19 -4 -15 0
-20 14 -20 10 0 19 -7 19 -15 0 -9 9 -15 23 -14 41 2 65 14 106 52 36 33 41
35 41 17 0 -11 -5 -20 -11 -20 -6 0 -8 -8 -4 -19 3 -11 1 -22 -5 -26 -7 -4 -7
-12 0 -25 8 -16 8 -18 -5 -14 -10 4 -15 0 -15 -15 0 -17 6 -21 30 -21 17 0 33
6 36 14 3 7 22 16 44 20 38 6 50 20 50 57 0 10 7 19 15 19 18 0 20 17 3 23
-10 4 -10 7 0 18 11 12 14 12 21 0 6 -9 11 -4 19 19 10 29 14 31 42 25 23 -5
32 -3 36 9 4 9 14 15 22 14 13 -2 21 15 37 77 11 44 24 86 28 93 5 6 4 12 -2
12 -6 0 -11 -5 -11 -11 0 -13 -38 -51 -90 -91 -45 -33 -133 -43 -138 -15 -2
12 3 17 20 18 64 3 63 3 62 37 -3 57 -8 62 -66 60 -29 -1 -63 -4 -75 -6z"/>
<path d="M6915 8220 c-3 -5 -1 -10 4 -10 6 0 11 5 11 10 0 6 -2 10 -4 10 -3 0
-8 -4 -11 -10z"/>
<path d="M9580 8219 c0 -5 5 -7 10 -4 6 3 10 8 10 11 0 2 -4 4 -10 4 -5 0 -10
-5 -10 -11z"/>
<path d="M7580 8210 c0 -5 5 -10 11 -10 5 0 7 5 4 10 -3 6 -8 10 -11 10 -2 0
-4 -4 -4 -10z"/>
<path d="M7190 8195 c0 -8 7 -15 15 -15 8 0 15 -7 15 -16 0 -8 5 -12 11 -8 7
4 7 10 1 16 -6 6 -8 17 -5 24 3 9 -2 14 -16 14 -12 0 -21 -6 -21 -15z"/>
<path d="M7532 8179 c2 -7 10 -15 17 -17 8 -3 12 1 9 9 -2 7 -10 15 -17 17 -8
3 -12 -1 -9 -9z"/>
<path d="M9554 8013 c1 -21 6 -37 11 -35 13 3 12 65 -2 69 -6 2 -10 -12 -9
-34z"/>
<path d="M9550 7940 c0 -5 5 -10 10 -10 6 0 10 5 10 10 0 6 -4 10 -10 10 -5 0
-10 -4 -10 -10z"/>
<path d="M9562 7899 c2 -7 10 -15 17 -17 8 -3 12 1 9 9 -2 7 -10 15 -17 17 -8
3 -12 -1 -9 -9z"/>
<path d="M7850 7804 c-8 -8 -22 -20 -33 -25 -16 -9 -18 -8 -12 10 9 29 -1 26
-43 -10 -29 -26 -37 -29 -46 -17 -12 14 -59 17 -88 4 -9 -4 -21 -5 -26 -2 -5
3 -22 1 -38 -4 -16 -5 -41 -12 -56 -15 -16 -3 -28 -12 -28 -20 0 -8 -4 -15
-10 -15 -5 0 -10 7 -10 15 0 8 -7 15 -15 15 -8 0 -15 4 -15 9 0 14 -38 1 -44
-15 -4 -10 -14 -12 -30 -8 -18 4 -32 -1 -53 -20 -15 -14 -28 -32 -28 -38 0 -7
-8 -14 -17 -16 -11 -2 -18 3 -18 11 0 10 -7 13 -20 10 -22 -6 -28 -33 -6 -33
7 0 19 -6 26 -14 6 -8 19 -12 28 -9 15 4 15 3 2 -6 -23 -16 -70 -14 -70 4 0 8
-9 24 -21 36 -18 18 -23 19 -37 6 -9 -8 -22 -13 -28 -10 -6 2 -10 -6 -10 -18
1 -30 -22 -36 -32 -9 -7 19 -10 20 -21 6 -12 -14 -15 -13 -32 7 -11 12 -17 15
-14 7 4 -12 -4 -16 -40 -18 -25 -1 -45 3 -45 8 0 6 -4 10 -10 10 -19 0 -10
-21 20 -47 35 -29 38 -43 10 -43 -14 0 -18 5 -13 16 5 14 2 16 -20 10 -23 -5
-27 -3 -27 16 l-1 23 -19 -24 c-17 -20 -22 -21 -36 -10 -14 11 -19 10 -35 -9
-14 -18 -22 -21 -36 -14 -36 19 -107 21 -143 5 -19 -8 -45 -19 -57 -24 -13 -5
-34 -14 -48 -20 -14 -7 -45 -9 -74 -6 -42 5 -52 3 -60 -11 -5 -10 -32 -26 -60
-36 -55 -20 -62 -29 -31 -46 15 -8 20 -21 20 -55 0 -25 3 -45 8 -45 9 0 42 37
37 42 -2 2 7 5 20 6 16 1 30 -6 37 -18 7 -11 19 -20 26 -20 8 0 11 -7 8 -18
-4 -12 1 -21 16 -27 12 -6 26 -24 30 -42 6 -24 12 -30 27 -26 16 4 22 -3 32
-36 7 -23 17 -42 23 -42 6 -1 21 -3 32 -4 33 -3 46 -15 41 -36 -3 -11 -1 -19
4 -19 5 0 9 5 9 10 0 6 5 10 10 10 6 0 10 -5 10 -10 0 -6 11 -28 25 -51 18
-27 35 -41 55 -46 17 -3 30 -9 30 -14 0 -5 7 -9 14 -9 8 0 26 -10 40 -23 14
-13 44 -29 68 -37 24 -7 62 -21 85 -31 24 -11 50 -19 59 -19 9 0 34 -5 56 -12
31 -9 38 -16 35 -30 -3 -10 -1 -21 5 -24 5 -3 7 -15 5 -26 -7 -26 2 -48 19
-48 8 0 14 -10 14 -24 0 -13 6 -28 13 -33 17 -13 67 -9 77 6 5 9 10 10 14 2 4
-6 5 -15 2 -20 -3 -4 9 -7 27 -5 17 2 34 9 35 14 7 19 24 10 19 -10 -6 -23 -6
-24 28 -8 14 6 25 17 25 24 0 8 6 11 15 8 14 -6 20 5 16 34 -2 10 4 12 18 7
15 -5 21 -2 21 9 0 19 5 20 31 5 17 -8 24 -7 36 8 13 16 14 16 9 1 -4 -14 0
-17 22 -16 29 2 52 15 52 29 0 5 -6 7 -12 5 -7 -1 -10 -1 -5 1 20 12 4 25 -23
20 -31 -7 -50 7 -24 17 9 3 30 6 47 6 48 1 162 34 162 47 0 20 12 24 25 8 21
-25 26 -18 26 33 -1 35 3 47 14 48 8 1 17 3 20 4 24 9 60 3 61 -10 2 -15 5
-37 8 -55 0 -5 6 -4 13 3 7 7 18 12 26 12 15 0 42 24 42 38 0 5 11 13 25 16
16 4 25 13 25 27 0 15 5 19 19 14 27 -8 36 12 10 25 -18 10 -25 7 -49 -20 -15
-17 -44 -39 -64 -50 l-37 -19 17 27 c19 30 55 58 67 54 4 -1 10 6 14 15 13 37
23 43 47 28 27 -18 39 -10 24 15 -14 22 -3 50 22 57 11 3 20 12 20 20 0 8 5
11 12 7 8 -5 9 -2 5 10 -7 18 3 45 26 68 17 17 91 131 92 140 0 4 10 15 23 23
12 9 22 24 22 33 1 33 27 55 60 50 26 -4 33 -1 41 19 15 40 10 68 -16 93 -14
13 -25 30 -25 38 0 9 -7 13 -20 9 -11 -3 -20 -2 -20 3 0 4 -19 20 -42 36 -24
15 -50 37 -59 47 -15 18 -16 18 -23 2 -6 -16 -8 -16 -19 -3 -20 25 -78 28
-110 6 -24 -17 -28 -18 -33 -3 -4 9 -13 13 -23 10 -21 -6 -62 24 -43 31 22 10
13 32 -13 30 -14 0 -25 -6 -25 -12 0 -7 -10 -11 -22 -11 -13 1 -36 -2 -52 -6
-28 -8 -29 -8 -23 27 6 38 -2 46 -23 20z m-523 -136 c-3 -8 -6 -5 -6 6 -1 11
2 17 5 13 3 -3 4 -12 1 -19z m558 -14 c32 -14 90 -36 129 -49 106 -35 132 -82
105 -190 -9 -35 -17 -46 -42 -56 -18 -7 -47 -24 -66 -36 -38 -26 -53 -29 -49
-10 3 13 -41 77 -53 77 -4 0 -10 -16 -13 -35 -5 -24 -15 -39 -34 -49 -48 -25
-132 -25 -156 0 -19 19 -40 9 -33 -17 3 -10 1 -21 -4 -25 -25 -15 -118 -32
-154 -27 -59 7 -68 7 -92 -1 -17 -5 -23 -3 -23 7 0 8 -9 17 -20 20 -21 5 -23
16 -24 116 -1 68 -25 85 -27 19 -1 -23 -3 -50 -4 -58 -1 -8 -3 -25 -4 -37 -1
-20 -6 -23 -43 -23 -24 0 -68 7 -98 15 -66 18 -60 17 -60 5 0 -5 11 -12 25
-16 33 -8 32 -19 -5 -36 -17 -7 -29 -17 -27 -23 5 -15 57 -18 83 -4 19 10 29
9 56 -4 22 -10 38 -13 49 -6 30 16 59 11 59 -10 0 -19 14 -33 35 -37 61 -11
100 -25 107 -38 5 -9 14 -16 21 -16 9 0 9 2 0 8 -18 12 -4 52 18 52 11 0 19
-6 19 -14 0 -8 8 -17 17 -20 15 -6 15 -8 3 -16 -12 -8 -11 -10 5 -10 11 0 26
-9 33 -20 15 -25 32 -26 32 -1 0 23 29 36 36 17 4 -11 11 -12 35 -3 22 9 34 9
49 -1 16 -10 23 -8 46 13 29 27 44 32 44 14 0 -7 10 -9 25 -5 15 4 25 2 25 -4
0 -19 -61 -71 -91 -77 -16 -3 -29 -12 -29 -20 0 -22 -31 -63 -43 -56 -7 4 -8
0 -4 -11 4 -10 7 -21 7 -26 0 -5 10 -10 23 -12 18 -3 11 -9 -34 -31 -63 -30
-84 -34 -76 -13 3 8 -1 20 -9 26 -8 7 -14 19 -14 26 0 18 -16 18 -23 0 -4 -9
-15 -12 -32 -8 -30 5 -45 -10 -38 -39 6 -22 14 -24 31 -7 9 9 12 9 12 0 0 -7
-14 -15 -30 -19 -17 -3 -33 -10 -36 -14 -6 -10 -48 -12 -57 -3 -3 3 -3 12 0
20 4 10 10 11 23 4 32 -17 45 -11 22 10 -12 12 -22 26 -22 31 0 6 -6 9 -12 6
-48 -17 -58 -18 -58 -3 0 9 -4 16 -10 16 -5 0 -10 -4 -10 -9 0 -5 -3 -16 -6
-25 -5 -12 0 -16 20 -16 14 0 26 -4 26 -9 0 -6 -12 -6 -27 -2 -16 4 -54 5 -86
1 -32 -3 -60 -4 -62 -1 -3 2 -5 15 -5 29 l0 25 -26 -28 c-19 -21 -28 -25 -34
-15 -4 7 -12 10 -18 6 -15 -9 -112 13 -150 35 -18 10 -40 19 -48 19 -8 0 -14
6 -14 13 0 8 -3 7 -10 -3 -8 -13 -14 -12 -46 5 -28 15 -33 21 -19 23 9 2 21
-1 25 -8 5 -8 12 -5 24 11 14 20 18 22 26 9 14 -22 21 -7 22 47 2 62 -5 72
-43 71 -17 -1 -38 6 -46 15 -15 15 -14 19 19 51 19 19 38 47 41 63 9 41 49 57
87 35 23 -13 32 -14 41 -5 10 10 8 14 -7 18 -49 16 -66 27 -71 45 -4 15 -18
20 -71 25 -96 9 -122 21 -122 56 0 39 53 74 160 104 25 7 77 23 115 34 39 12
84 24 100 26 17 2 56 7 88 11 41 5 63 13 75 28 10 12 22 22 27 23 6 1 64 7
130 13 66 6 149 18 185 25 97 19 122 18 185 -11z m323 14 c-3 -7 -24 -14 -47
-16 -25 -2 -41 1 -37 6 3 5 16 7 30 5 13 -3 27 0 30 6 10 15 29 14 24 -1z
m-1063 -59 c11 -17 -1 -21 -15 -4 -8 9 -8 15 -2 15 6 0 14 -5 17 -11z m718
-344 c-10 -13 -22 -25 -27 -25 -5 0 1 11 14 25 30 32 36 32 13 0z m-203 -109
c0 -3 -4 -8 -10 -11 -5 -3 -10 -1 -10 4 0 6 5 11 10 11 6 0 10 -2 10 -4z
m-779 -159 c-10 -9 -11 -8 -5 6 3 10 9 15 12 12 3 -3 0 -11 -7 -18z m329 -205
c0 -5 -13 -18 -30 -30 -16 -13 -30 -18 -30 -12 0 5 4 10 9 10 5 0 11 9 14 20
5 19 37 29 37 12z m25 -52 c10 -11 14 -20 9 -20 -12 1 -44 25 -44 34 0 12 17
6 35 -14z m170 -60 c-5 -16 -10 -19 -18 -11 -7 7 -6 15 3 26 17 20 24 13 15
-15z"/>
<path d="M7720 7010 c0 -5 5 -10 10 -10 6 0 10 5 10 10 0 6 -4 10 -10 10 -5 0
-10 -4 -10 -10z"/>
<path d="M7665 6950 c-3 -5 -1 -10 4 -10 6 0 11 5 11 10 0 6 -2 10 -4 10 -3 0
-8 -4 -11 -10z"/>
<path d="M7690 6905 c0 -8 4 -15 9 -15 5 0 14 7 21 15 10 13 9 15 -9 15 -12 0
-21 -6 -21 -15z"/>
<path d="M7280 6895 c0 -8 5 -15 10 -15 6 0 10 7 10 15 0 8 -4 15 -10 15 -5 0
-10 -7 -10 -15z"/>
<path d="M9470 7775 c0 -8 5 -15 10 -15 6 0 10 7 10 15 0 8 -4 15 -10 15 -5 0
-10 -7 -10 -15z"/>
<path d="M9510 7779 c0 -5 5 -7 10 -4 6 3 10 8 10 11 0 2 -4 4 -10 4 -5 0 -10
-5 -10 -11z"/>
<path d="M5430 7756 c0 -9 5 -16 10 -16 6 0 10 4 10 9 0 6 -4 13 -10 16 -5 3
-10 -1 -10 -9z"/>
<path d="M9540 7750 c0 -5 5 -10 10 -10 6 0 10 5 10 10 0 6 -4 10 -10 10 -5 0
-10 -4 -10 -10z"/>
<path d="M9545 7550 c-7 -12 18 -24 37 -18 8 3 5 9 -9 16 -14 8 -24 9 -28 2z"/>
<path d="M5396 7484 c-4 -9 -4 -19 -2 -21 9 -9 66 9 60 18 -3 5 -9 7 -14 4 -5
-3 -11 -1 -15 5 -9 15 -22 12 -29 -6z"/>
<path d="M9560 7491 c0 -6 5 -13 10 -16 6 -3 10 1 10 9 0 9 -4 16 -10 16 -5 0
-10 -4 -10 -9z"/>
<path d="M9540 7470 c0 -5 5 -10 10 -10 6 0 10 5 10 10 0 6 -4 10 -10 10 -5 0
-10 -4 -10 -10z"/>
<path d="M5502 7408 c5 -15 28 -23 28 -10 0 5 -7 13 -16 16 -10 4 -14 1 -12
-6z"/>
<path d="M9415 7411 c-3 -5 -1 -12 5 -16 12 -7 30 2 30 16 0 12 -27 12 -35 0z"/>
<path d="M5470 7350 c0 -13 28 -25 38 -16 3 4 0 11 -8 16 -20 13 -30 12 -30 0z"/>
<path d="M9470 7320 c0 -5 5 -10 11 -10 5 0 7 5 4 10 -3 6 -8 10 -11 10 -2 0
-4 -4 -4 -10z"/>
<path d="M6285 7270 c3 -5 8 -10 11 -10 2 0 4 5 4 10 0 6 -5 10 -11 10 -5 0
-7 -4 -4 -10z"/>
<path d="M9442 7154 c4 -20 34 -41 44 -31 8 8 -24 47 -38 47 -5 0 -8 -7 -6
-16z"/>
<path d="M5590 7090 c0 -5 5 -10 10 -10 6 0 10 5 10 10 0 6 -4 10 -10 10 -5 0
-10 -4 -10 -10z"/>
<path d="M8145 7050 c-9 -15 -1 -23 21 -18 15 3 16 4 1 16 -11 9 -17 10 -22 2z"/>
<path d="M9402 7044 c1 -9 9 -19 16 -22 9 -3 13 2 10 14 -1 9 -9 19 -16 22 -9
3 -13 -2 -10 -14z"/>
<path d="M5620 6995 c-7 -9 -10 -18 -7 -21 10 -11 37 5 37 21 0 19 -14 19 -30
0z"/>
<path d="M9235 6970 c3 -5 8 -10 11 -10 2 0 4 5 4 10 0 6 -5 10 -11 10 -5 0
-7 -4 -4 -10z"/>
<path d="M8220 6944 c0 -9 5 -14 12 -12 18 6 21 28 4 28 -9 0 -16 -7 -16 -16z"/>
<path d="M9260 6920 c0 -5 5 -10 10 -10 6 0 10 5 10 10 0 6 -4 10 -10 10 -5 0
-10 -4 -10 -10z"/>
<path d="M7900 6905 c0 -8 5 -15 10 -15 6 0 10 7 10 15 0 8 -4 15 -10 15 -5 0
-10 -7 -10 -15z"/>
<path d="M9210 6911 c0 -11 31 -24 39 -16 3 3 -1 10 -9 15 -19 12 -30 12 -30
1z"/>
<path d="M6979 6839 c-20 -12 -5 -21 37 -23 24 -1 39 4 42 13 3 10 0 12 -11 8
-8 -3 -18 -3 -21 1 -10 10 -32 11 -47 1z"/>
<path d="M7910 6825 c-8 -9 -8 -15 -2 -15 12 0 26 19 19 26 -2 2 -10 -2 -17
-11z"/>
<path d="M7059 6804 c-12 -14 -11 -16 5 -13 11 2 21 10 24 17 5 17 -13 15 -29
-4z"/>
<path d="M9190 6780 c0 -5 7 -10 16 -10 8 0 12 5 9 10 -3 6 -10 10 -16 10 -5
0 -9 -4 -9 -10z"/>
<path d="M7110 6769 c0 -5 5 -7 10 -4 6 3 10 8 10 11 0 2 -4 4 -10 4 -5 0 -10
-5 -10 -11z"/>
<path d="M7685 6769 c-4 -6 -5 -13 -2 -16 7 -7 27 6 27 18 0 12 -17 12 -25 -2z"/>
<path d="M8290 6730 c0 -5 5 -10 11 -10 5 0 7 5 4 10 -3 6 -8 10 -11 10 -2 0
-4 -4 -4 -10z"/>
<path d="M5828 6653 c6 -2 18 -2 25 0 6 3 1 5 -13 5 -14 0 -19 -2 -12 -5z"/>
<path d="M7445 6650 c-3 -5 -1 -10 4 -10 6 0 11 5 11 10 0 6 -2 10 -4 10 -3 0
-8 -4 -11 -10z"/>
<path d="M5770 6610 c0 -5 5 -10 10 -10 6 0 10 5 10 10 0 6 -4 10 -10 10 -5 0
-10 -4 -10 -10z"/>
<path d="M7290 6510 c0 -5 5 -10 10 -10 6 0 10 5 10 10 0 6 -4 10 -10 10 -5 0
-10 -4 -10 -10z"/>
<path d="M5850 6460 c0 -5 5 -10 11 -10 5 0 7 5 4 10 -3 6 -8 10 -11 10 -2 0
-4 -4 -4 -10z"/>
<path d="M8975 6430 c3 -5 11 -10 16 -10 6 0 7 5 4 10 -3 6 -11 10 -16 10 -6
0 -7 -4 -4 -10z"/>
<path d="M8950 6391 c0 -6 5 -13 10 -16 6 -3 10 1 10 9 0 9 -4 16 -10 16 -5 0
-10 -4 -10 -9z"/>
<path d="M6050 6340 c0 -5 5 -10 10 -10 6 0 10 5 10 10 0 6 -4 10 -10 10 -5 0
-10 -4 -10 -10z"/>
<path d="M6110 6319 c0 -5 9 -9 20 -9 11 0 20 4 20 8 0 4 -9 8 -20 9 -11 1
-20 -2 -20 -8z"/>
<path d="M8860 6320 c0 -5 5 -10 10 -10 6 0 10 5 10 10 0 6 -4 10 -10 10 -5 0
-10 -4 -10 -10z"/>
<path d="M6055 6300 c-3 -5 -1 -10 4 -10 6 0 11 5 11 10 0 6 -2 10 -4 10 -3 0
-8 -4 -11 -10z"/>
<path d="M8710 6300 c0 -5 5 -10 11 -10 5 0 7 5 4 10 -3 6 -8 10 -11 10 -2 0
-4 -4 -4 -10z"/>
<path d="M6126 6292 c-2 -4 4 -13 14 -20 11 -7 21 -8 25 -2 3 5 -3 14 -14 20
-11 5 -22 6 -25 2z"/>
<path d="M6280 6290 c0 -5 7 -10 16 -10 8 0 12 5 9 10 -3 6 -10 10 -16 10 -5
0 -9 -4 -9 -10z"/>
<path d="M6080 6283 c0 -5 5 -15 10 -23 8 -12 10 -11 10 8 0 12 -4 22 -10 22
-5 0 -10 -3 -10 -7z"/>
<path d="M8545 6260 c-3 -5 -1 -10 4 -10 6 0 11 5 11 10 0 6 -2 10 -4 10 -3 0
-8 -4 -11 -10z"/>
<path d="M8660 6251 c0 -5 7 -11 15 -15 9 -3 15 0 15 9 0 8 -7 15 -15 15 -8 0
-15 -4 -15 -9z"/>
<path d="M6150 6234 c0 -8 5 -12 10 -9 6 3 10 10 10 16 0 5 -4 9 -10 9 -5 0
-10 -7 -10 -16z"/>
<path d="M6250 6239 c0 -5 5 -7 10 -4 6 3 10 8 10 11 0 2 -4 4 -10 4 -5 0 -10
-5 -10 -11z"/>
<path d="M8760 6234 c0 -9 5 -14 12 -12 18 6 21 28 4 28 -9 0 -16 -7 -16 -16z"/>
<path d="M6120 6220 c0 -5 5 -10 10 -10 6 0 10 5 10 10 0 6 -4 10 -10 10 -5 0
-10 -4 -10 -10z"/>
<path d="M8565 6220 c-3 -5 -1 -10 4 -10 6 0 11 5 11 10 0 6 -2 10 -4 10 -3 0
-8 -4 -11 -10z"/>
<path d="M6167 6204 c-14 -14 -6 -24 19 -24 16 0 24 5 22 13 -5 14 -31 21 -41
11z"/>
<path d="M8735 6178 c9 -30 20 -41 35 -36 9 3 8 8 -4 20 -9 9 -16 21 -16 27 0
6 -5 11 -11 11 -6 0 -8 -9 -4 -22z"/>
<path d="M8700 6165 c7 -9 15 -13 17 -11 7 7 -7 26 -19 26 -6 0 -6 -6 2 -15z"/>
<path d="M6250 6140 c0 -5 5 -10 10 -10 6 0 10 5 10 10 0 6 -4 10 -10 10 -5 0
-10 -4 -10 -10z"/>
<path d="M6863 6143 c9 -2 23 -2 30 0 6 3 -1 5 -18 5 -16 0 -22 -2 -12 -5z"/>
<path d="M8562 6121 c2 -7 7 -12 11 -12 12 1 9 15 -3 20 -7 2 -11 -2 -8 -8z"/>
<path d="M6390 6110 c0 -5 5 -10 10 -10 6 0 10 5 10 10 0 6 -4 10 -10 10 -5 0
-10 -4 -10 -10z"/>
<path d="M6845 6110 c-3 -5 -1 -10 4 -10 6 0 11 5 11 10 0 6 -2 10 -4 10 -3 0
-8 -4 -11 -10z"/>
<path d="M6423 6094 c-15 -16 -16 -24 -4 -24 8 0 24 30 19 35 -2 2 -9 -3 -15
-11z"/>
<path d="M6500 6100 c0 -5 5 -10 10 -10 6 0 10 5 10 10 0 6 -4 10 -10 10 -5 0
-10 -4 -10 -10z"/>
<path d="M8630 6099 c0 -5 5 -7 10 -4 6 3 10 8 10 11 0 2 -4 4 -10 4 -5 0 -10
-5 -10 -11z"/>
<path d="M8660 6085 c0 -8 5 -15 10 -15 6 0 10 7 10 15 0 8 -4 15 -10 15 -5 0
-10 -7 -10 -15z"/>
<path d="M6451 6071 c-10 -6 -10 -10 -1 -16 13 -8 24 -1 19 14 -3 6 -10 7 -18
2z"/>
<path d="M8400 6070 c0 -5 5 -10 11 -10 5 0 7 5 4 10 -3 6 -8 10 -11 10 -2 0
-4 -4 -4 -10z"/>
<path d="M8550 6055 c-12 -14 -12 -18 1 -26 28 -18 34 -11 20 24 -6 18 -8 18
-21 2z"/>
<path d="M6780 6050 c0 -5 5 -10 10 -10 6 0 10 5 10 10 0 6 -4 10 -10 10 -5 0
-10 -4 -10 -10z"/>
<path d="M7775 6050 c3 -5 8 -10 11 -10 2 0 4 5 4 10 0 6 -5 10 -11 10 -5 0
-7 -4 -4 -10z"/>
<path d="M8375 6030 c4 -6 11 -8 16 -5 14 9 11 15 -7 15 -8 0 -12 -5 -9 -10z"/>
<path d="M6510 6020 c0 -5 5 -10 10 -10 6 0 10 5 10 10 0 6 -4 10 -10 10 -5 0
-10 -4 -10 -10z"/>
<path d="M8479 6017 c15 -18 61 -23 61 -7 0 6 -6 10 -12 10 -7 0 -24 3 -38 7
-22 6 -24 5 -11 -10z"/>
<path d="M7680 6000 c0 -5 5 -10 11 -10 5 0 7 5 4 10 -3 6 -8 10 -11 10 -2 0
-4 -4 -4 -10z"/>
<path d="M7720 5980 c0 -5 7 -10 16 -10 8 0 12 5 9 10 -3 6 -10 10 -16 10 -5
0 -9 -4 -9 -10z"/>
<path d="M6969 5963 c-13 -15 -12 -15 9 -4 23 12 28 21 13 21 -5 0 -15 -7 -22
-17z"/>
<path d="M7656 5966 c3 -9 11 -16 16 -16 13 0 5 23 -10 28 -7 2 -10 -2 -6 -12z"/>
<path d="M8390 5970 c0 -5 5 -10 10 -10 6 0 10 5 10 10 0 6 -4 10 -10 10 -5 0
-10 -4 -10 -10z"/>
<path d="M8314 5959 c-4 -8 -3 -9 4 -5 7 4 12 1 12 -8 0 -9 5 -16 11 -16 14 0
7 32 -8 37 -6 2 -15 -1 -19 -8z"/>
<path d="M6520 5941 c0 -6 5 -13 10 -16 6 -3 10 1 10 9 0 9 -4 16 -10 16 -5 0
-10 -4 -10 -9z"/>
<path d="M7510 5940 c0 -5 5 -10 10 -10 6 0 10 5 10 10 0 6 -4 10 -10 10 -5 0
-10 -4 -10 -10z"/>
<path d="M7140 5929 c0 -5 5 -7 10 -4 6 3 10 8 10 11 0 2 -4 4 -10 4 -5 0 -10
-5 -10 -11z"/>
<path d="M6656 5914 c-5 -14 -4 -15 9 -4 17 14 19 20 6 20 -5 0 -12 -7 -15
-16z"/>
<path d="M6550 5910 c0 -5 5 -10 10 -10 6 0 10 5 10 10 0 6 -4 10 -10 10 -5 0
-10 -4 -10 -10z"/>
<path d="M6760 5904 c0 -8 5 -12 10 -9 6 3 10 10 10 16 0 5 -4 9 -10 9 -5 0
-10 -7 -10 -16z"/>
<path d="M6870 5905 c0 -8 5 -15 10 -15 6 0 10 7 10 15 0 8 -4 15 -10 15 -5 0
-10 -7 -10 -15z"/>
<path d="M7550 5896 c0 -2 7 -7 16 -10 8 -3 12 -2 9 4 -6 10 -25 14 -25 6z"/>
<path d="M8237 5878 c-10 -10 -15 -23 -12 -28 9 -15 25 -12 25 5 0 9 6 12 15
9 9 -4 15 0 15 9 0 23 -23 26 -43 5z"/>
<path d="M6805 5881 c-3 -5 -1 -12 4 -15 5 -3 11 1 15 9 6 16 -9 21 -19 6z"/>
<path d="M7055 5869 c-10 -15 3 -25 16 -12 7 7 7 13 1 17 -6 3 -14 1 -17 -5z"/>
<path d="M8185 5870 c3 -5 8 -10 11 -10 2 0 4 5 4 10 0 6 -5 10 -11 10 -5 0
-7 -4 -4 -10z"/>
<path d="M6650 5860 c0 -5 5 -10 10 -10 6 0 10 5 10 10 0 6 -4 10 -10 10 -5 0
-10 -4 -10 -10z"/>
<path d="M8055 5840 c-3 -5 -1 -18 4 -27 9 -16 10 -14 11 10 0 28 -5 34 -15
17z"/>
<path d="M6672 5820 c-14 -23 -15 -30 -3 -30 8 0 24 41 18 47 -2 1 -8 -7 -15
-17z"/>
<path d="M6775 5821 c-3 -5 -1 -12 5 -16 5 -3 10 1 10 9 0 18 -6 21 -15 7z"/>
<path d="M7920 5810 c0 -5 5 -10 11 -10 5 0 7 5 4 10 -3 6 -8 10 -11 10 -2 0
-4 -4 -4 -10z"/>
<path d="M6983 5803 c-15 -5 -18 -33 -4 -33 5 0 11 9 14 20 3 11 4 20 4 19 -1
0 -8 -3 -14 -6z"/>
<path d="M7590 5800 c0 -5 5 -10 11 -10 5 0 7 5 4 10 -3 6 -8 10 -11 10 -2 0
-4 -4 -4 -10z"/>
<path d="M6710 5790 c0 -5 6 -10 14 -10 8 0 18 5 21 10 3 6 -3 10 -14 10 -12
0 -21 -4 -21 -10z"/>
<path d="M7250 5792 c0 -12 19 -26 26 -19 2 2 -2 10 -11 17 -9 8 -15 8 -15 2z"/>
<path d="M7640 5790 c0 -5 5 -10 11 -10 5 0 7 5 4 10 -3 6 -8 10 -11 10 -2 0
-4 -4 -4 -10z"/>
<path d="M7214 5774 c3 -9 6 -18 6 -20 0 -2 5 -4 10 -4 6 0 10 9 10 20 0 12
-7 20 -16 20 -11 0 -14 -5 -10 -16z"/>
<path d="M7385 5780 c-3 -5 -1 -10 4 -10 6 0 11 5 11 10 0 6 -2 10 -4 10 -3 0
-8 -4 -11 -10z"/>
<path d="M7498 5780 c-5 -17 28 -57 39 -46 5 4 1 13 -8 19 -9 7 -18 19 -21 27
-4 13 -5 13 -10 0z"/>
<path d="M6850 5769 c0 -6 25 -19 36 -19 2 0 4 6 4 13 0 7 -9 13 -20 13 -11 0
-20 -3 -20 -7z"/>
<path d="M7566 5771 c-4 -7 -5 -15 -2 -18 9 -9 19 4 14 18 -4 11 -6 11 -12 0z"/>
<path d="M7730 5760 c0 -5 5 -10 10 -10 6 0 10 5 10 10 0 6 -4 10 -10 10 -5 0
-10 -4 -10 -10z"/>
<path d="M7856 5754 c-8 -21 -8 -24 3 -24 12 0 22 28 12 35 -5 3 -12 -2 -15
-11z"/>
<path d="M7890 5760 c0 -6 9 -20 20 -32 11 -12 20 -16 20 -9 0 6 15 18 33 26
27 11 29 15 14 20 -11 5 -25 1 -37 -10 -18 -16 -20 -17 -20 -2 0 10 -7 17 -15
17 -8 0 -15 -5 -15 -10z"/>
<path d="M6960 5752 c1 -17 19 -34 29 -28 17 11 13 23 -9 29 -11 3 -20 2 -20
-1z"/>
<path d="M7070 5745 c0 -8 5 -15 10 -15 6 0 10 7 10 15 0 8 -4 15 -10 15 -5 0
-10 -7 -10 -15z"/>
<path d="M8010 5750 c0 -5 5 -10 10 -10 6 0 10 5 10 10 0 6 -4 10 -10 10 -5 0
-10 -4 -10 -10z"/>
<path d="M7026 5741 c-4 -7 -5 -15 -2 -18 9 -9 19 4 14 18 -4 11 -6 11 -12 0z"/>
<path d="M7190 5730 c0 -5 5 -10 10 -10 6 0 10 5 10 10 0 6 -4 10 -10 10 -5 0
-10 -4 -10 -10z"/>
<path d="M7690 5732 c0 -5 6 -16 13 -27 10 -13 16 -15 21 -6 4 6 2 18 -4 26
-13 16 -30 20 -30 7z"/>
<path d="M7335 5719 c-10 -15 3 -25 16 -12 7 7 7 13 1 17 -6 3 -14 1 -17 -5z"/>
<path d="M7450 5710 c0 -5 5 -10 10 -10 6 0 10 5 10 10 0 6 -4 10 -10 10 -5 0
-10 -4 -10 -10z"/>
<path d="M7830 5706 c0 -8 7 -17 16 -20 23 -9 34 -7 34 4 0 6 -7 10 -15 10 -8
0 -15 5 -15 10 0 6 -4 10 -10 10 -5 0 -10 -6 -10 -14z"/>
<path d="M7422 5694 c1 -9 9 -19 16 -22 9 -3 13 2 10 14 -1 9 -9 19 -16 22 -9
3 -13 -2 -10 -14z"/>
<path d="M7507 5696 c-4 -10 -5 -21 -2 -24 9 -9 17 6 13 25 -3 17 -4 17 -11
-1z"/>
<path d="M5880 10160 c0 -5 7 -10 15 -10 8 0 15 5 15 10 0 6 -7 10 -15 10 -8
0 -15 -4 -15 -10z"/>
<path d="M7995 14360 c3 -5 8 -10 11 -10 2 0 4 5 4 10 0 6 -5 10 -11 10 -5 0
-7 -4 -4 -10z"/>
<path d="M8020 14341 c0 -13 29 -35 37 -28 7 8 -15 37 -28 37 -5 0 -9 -4 -9
-9z"/>
<path d="M5380 13549 c0 -36 2 -40 15 -29 8 7 15 25 15 41 0 19 -5 29 -15 29
-11 0 -15 -11 -15 -41z"/>
<path d="M9246 13421 c-4 -5 -2 -12 3 -15 5 -4 12 -2 15 3 4 5 2 12 -3 15 -5
4 -12 2 -15 -3z"/>
<path d="M5091 13376 c-8 -9 -11 -19 -7 -23 9 -9 29 13 24 27 -2 8 -8 7 -17
-4z"/>
<path d="M5146 13348 c-9 -34 -7 -48 4 -48 13 0 29 41 23 58 -8 19 -20 14 -27
-10z"/>
<path d="M9360 13300 c0 -5 5 -10 11 -10 5 0 7 5 4 10 -3 6 -8 10 -11 10 -2 0
-4 -4 -4 -10z"/>
<path d="M4830 13160 c0 -5 5 -10 10 -10 6 0 10 5 10 10 0 6 -4 10 -10 10 -5
0 -10 -4 -10 -10z"/>
<path d="M4767 12363 c-13 -13 -7 -32 8 -27 8 4 15 12 15 20 0 15 -12 19 -23
7z"/>
<path d="M10095 11830 c3 -5 8 -10 11 -10 2 0 4 5 4 10 0 6 -5 10 -11 10 -5 0
-7 -4 -4 -10z"/>
<path d="M9150 5739 c0 -5 5 -7 10 -4 6 3 10 8 10 11 0 2 -4 4 -10 4 -5 0 -10
-5 -10 -11z"/>
<path d="M9154 5652 c-14 -20 -19 -47 -19 -107 0 -44 -4 -83 -9 -86 -5 -4 -6
-14 -3 -24 5 -12 13 -14 29 -9 13 4 26 11 29 17 4 5 14 7 23 4 18 -7 22 8 5
18 -6 4 -8 14 -5 22 6 15 6 15 -43 -5 -12 -4 -13 4 -8 42 8 56 18 77 26 54 5
-13 9 -12 24 8 11 14 13 22 5 19 -7 -3 -19 4 -26 15 -16 26 -6 46 14 29 8 -6
14 -7 14 -3 0 5 -9 15 -19 21 -17 10 -22 8 -37 -15z"/>
<path d="M9207 5563 c-10 -10 -8 -33 3 -33 5 0 14 9 20 20 8 15 8 20 -3 20 -8
0 -17 -3 -20 -7z"/>
<path d="M9255 5440 c-3 -5 -1 -10 4 -10 6 0 11 5 11 10 0 6 -2 10 -4 10 -3 0
-8 -4 -11 -10z"/>
<path d="M9170 5400 c0 -5 -9 -10 -20 -10 -11 0 -24 -8 -27 -17 -4 -10 -16
-26 -28 -35 -11 -10 -16 -17 -12 -18 5 0 -5 -17 -22 -37 -24 -30 -28 -39 -16
-43 10 -3 11 -10 5 -20 -5 -8 -12 -11 -16 -8 -10 10 -44 -10 -44 -26 0 -8 -7
-17 -16 -20 -11 -4 -13 -13 -9 -27 6 -17 4 -21 -8 -16 -16 6 -67 -41 -67 -63
0 -12 -61 -75 -114 -118 -12 -9 -29 -30 -39 -45 -10 -15 -22 -25 -26 -23 -4 3
-29 -15 -55 -39 -25 -25 -49 -45 -53 -45 -3 0 -21 -16 -40 -35 -19 -19 -38
-35 -44 -35 -5 0 -19 -11 -31 -25 -12 -14 -25 -25 -30 -25 -8 0 -22 -11 -81
-62 -18 -15 -37 -28 -44 -28 -7 0 -32 -20 -55 -43 -24 -24 -58 -50 -75 -57
-18 -7 -33 -16 -33 -21 0 -5 -7 -9 -15 -9 -8 0 -43 -13 -77 -30 -34 -16 -68
-30 -75 -30 -22 0 -93 -39 -93 -51 0 -6 -7 -8 -16 -5 -18 7 -62 -14 -88 -43
-11 -12 -27 -21 -38 -21 -21 0 -138 -78 -183 -122 -16 -16 -36 -35 -44 -43
-11 -11 -21 -9 -60 10 -91 45 -138 65 -153 65 -9 0 -21 6 -27 14 -7 8 -27 17
-45 20 -18 4 -44 15 -56 26 -13 11 -29 20 -36 20 -7 0 -22 9 -33 21 -11 12
-21 16 -25 10 -4 -7 -18 -4 -40 8 -19 11 -43 17 -59 14 -20 -4 -27 -1 -27 11
0 22 -8 20 -31 -6 l-18 -23 -1 23 c0 24 -31 44 -38 24 -5 -17 -32 -15 -32 3 0
8 -5 15 -11 15 -16 0 -74 52 -71 63 2 5 -7 7 -19 4 -27 -7 -49 1 -49 19 0 7
-8 17 -17 23 -15 8 -15 11 -3 26 11 14 10 19 -8 37 -17 18 -23 19 -36 8 -9 -7
-16 -18 -16 -24 0 -7 -16 -12 -37 -13 -26 -1 -42 -8 -51 -22 -11 -15 -21 -19
-43 -14 -22 4 -29 2 -29 -10 0 -10 -6 -13 -21 -10 -16 5 -20 2 -17 -13 2 -13
-6 -21 -27 -29 -16 -5 -37 -16 -45 -22 -49 -42 -140 -105 -168 -118 -18 -9
-39 -27 -48 -41 -10 -14 -26 -24 -40 -24 -14 0 -27 -7 -30 -15 -4 -8 -15 -15
-25 -15 -10 0 -19 -5 -19 -11 0 -7 -11 -8 -30 -4 -23 5 -29 3 -25 -7 6 -14
-44 -38 -77 -38 -9 0 -18 -6 -21 -13 -2 -7 -19 -14 -37 -15 -18 -1 -37 -5 -41
-8 -14 -8 -10 -36 4 -30 13 5 18 7 243 71 l161 47 164 -112 c90 -62 171 -115
179 -118 8 -3 33 -20 55 -37 22 -18 47 -35 55 -39 8 -3 50 -32 94 -64 l79 -57
66 -145 c37 -80 74 -161 83 -180 9 -19 32 -71 51 -115 19 -44 59 -132 89 -195
30 -63 65 -140 77 -171 l23 -55 -17 -135 c-9 -74 -21 -170 -26 -214 -5 -44
-11 -93 -14 -110 -3 -16 -12 -88 -20 -160 -8 -71 -33 -274 -55 -450 -23 -176
-48 -374 -56 -440 -8 -66 -20 -172 -28 -235 -8 -63 -24 -189 -35 -280 -11 -91
-29 -237 -41 -325 -11 -88 -27 -218 -36 -290 -8 -72 -17 -138 -20 -147 -5 -16
11 -17 183 -20 103 -2 352 -2 552 0 l364 3 -7 107 c-4 59 -9 127 -10 152 -5
69 -16 255 -21 350 -2 47 -18 326 -35 620 -17 294 -35 625 -40 735 -5 110 -14
270 -20 355 -6 85 -12 187 -14 225 -1 39 -9 95 -16 126 -13 53 -12 59 9 100
13 24 31 60 41 79 9 19 68 175 129 345 61 171 115 316 119 324 4 8 77 54 162
104 178 103 408 237 527 309 l83 49 122 -54 c68 -30 193 -85 278 -122 85 -37
211 -92 280 -123 113 -49 195 -82 207 -82 11 0 -48 233 -123 485 -20 66 -34
124 -83 345 -22 102 -49 217 -60 255 -11 39 -27 99 -36 135 -34 135 -40 150
-52 150 -7 0 -13 5 -13 10 0 6 5 10 10 10 18 0 10 24 -15 49 -14 13 -32 21
-40 18 -17 -7 -30 9 -15 18 14 9 12 25 -3 25 -8 0 -20 -11 -27 -25 -7 -14 -17
-25 -22 -25 -11 0 -10 27 2 51 6 10 7 19 3 19 -5 0 -17 14 -27 31 -14 24 -21
28 -32 19 -10 -9 -19 -7 -39 8 l-25 20 22 5 c12 4 28 1 35 -4 6 -6 17 -8 23
-4 18 11 11 32 -16 50 -20 13 -24 22 -20 41 6 21 3 24 -18 24 -18 0 -24 4 -20
15 4 8 3 15 0 15 -3 0 -6 -4 -6 -10z m0 -59 c0 -18 -18 -21 -30 -6 -10 13 -9
15 9 15 11 0 21 -4 21 -9z m-10 -41 c0 -5 -9 -10 -20 -10 -11 0 -20 5 -20 10
0 6 9 10 20 10 11 0 20 -4 20 -10z m-56 -36 c9 -22 -3 -32 -14 -14 -12 19 -12
30 -1 30 5 0 12 -7 15 -16z m56 -49 c0 -8 -2 -15 -4 -15 -2 0 -6 7 -10 15 -3
8 -1 15 4 15 6 0 10 -7 10 -15z m50 -35 c0 -5 -4 -10 -10 -10 -5 0 -10 5 -10
10 0 6 5 10 10 10 6 0 10 -4 10 -10z m48 -32 c-6 -18 -28 -21 -28 -4 0 9 7 16
16 16 9 0 14 -5 12 -12z m127 -158 c3 -5 1 -10 -4 -10 -6 0 -11 5 -11 10 0 6
2 10 4 10 3 0 8 -4 11 -10z m-2730 -479 c3 -5 1 -12 -5 -16 -5 -3 -10 1 -10 9
0 18 6 21 15 7z m1349 -272 c-10 -16 -24 -9 -24 12 0 18 2 19 15 9 8 -7 12
-16 9 -21z m-83 -62 c-8 -8 -11 -7 -11 4 0 20 13 34 18 19 3 -7 -1 -17 -7 -23z
m-1176 4 c3 -5 1 -12 -5 -16 -5 -3 -10 1 -10 9 0 18 6 21 15 7z m115 -151 c0
-5 -5 -10 -11 -10 -5 0 -7 5 -4 10 3 6 8 10 11 10 2 0 4 -4 4 -10z m0 -110 c0
-5 -4 -10 -10 -10 -5 0 -10 5 -10 10 0 6 5 10 10 10 6 0 10 -4 10 -10z m-100
-60 c0 -5 -7 -10 -15 -10 -8 0 -15 5 -15 10 0 6 7 10 15 10 8 0 15 -4 15 -10z
m350 -9 c0 -5 -6 -11 -12 -14 -7 -2 -10 -8 -6 -12 4 -4 14 0 23 9 20 19 68 16
93 -7 23 -21 36 -22 28 -2 -4 12 -2 13 14 2 11 -6 23 -20 26 -29 3 -10 12 -18
19 -18 8 0 12 6 9 14 -4 9 6 20 25 30 37 20 41 20 41 0 0 -9 16 -31 35 -50 19
-18 35 -39 35 -45 0 -6 9 -24 21 -40 15 -21 26 -28 40 -24 10 4 19 2 19 -3 0
-19 -33 -22 -63 -7 -35 18 -47 19 -47 5 0 -5 9 -10 20 -10 22 0 27 -16 8 -22
-10 -4 -10 -10 0 -32 15 -35 15 -63 0 -69 -10 -4 -10 -7 0 -18 11 -12 14 -12
22 1 12 20 23 6 15 -20 -8 -27 -37 -23 -50 8 -11 24 -35 30 -35 9 0 -7 5 -18
12 -25 9 -9 7 -16 -7 -33 -19 -20 -19 -21 1 -37 26 -21 38 -62 18 -62 -8 0
-14 9 -14 20 0 11 -4 20 -10 20 -5 0 -10 7 -10 16 0 28 -35 11 -38 -18 -3 -23
-7 -27 -30 -25 -15 2 -37 9 -49 15 -40 22 -74 -15 -38 -42 10 -7 12 -16 5 -26
-7 -12 -12 -10 -29 12 -14 18 -27 24 -41 21 -14 -4 -20 0 -20 11 0 9 5 16 10
16 6 0 10 -5 10 -12 0 -9 3 -9 12 0 10 10 10 17 0 32 -13 21 -2 33 22 24 9 -3
16 -1 16 5 0 6 -7 11 -15 11 -8 0 -15 5 -15 10 0 18 -18 11 -25 -10 -4 -11
-15 -20 -26 -20 -11 0 -22 -7 -25 -15 -4 -8 -16 -15 -28 -14 l-21 0 22 9 c12
5 24 18 28 29 3 12 13 21 20 21 19 0 39 37 24 45 -6 4 -13 5 -16 1 -3 -3 -12
2 -20 10 -13 13 -13 17 0 37 14 21 13 24 -5 36 -22 14 -48 0 -48 -25 0 -8 -10
-14 -22 -14 l-23 1 23 18 c26 23 27 29 5 53 -15 17 -15 18 5 18 25 0 28 12 8
30 -8 6 -12 18 -9 26 6 16 -12 19 -22 4 -15 -24 -24 -7 -10 20 8 16 15 34 15
40 0 18 -20 10 -29 -12 -5 -14 -10 -18 -15 -10 -4 7 -12 10 -17 7 -5 -4 -9 1
-9 10 0 8 7 18 15 21 8 4 15 10 15 15 0 5 -7 9 -15 9 -21 0 -19 23 5 50 11 13
20 18 20 11 0 -7 4 -9 10 -6 5 3 18 1 28 -4 14 -8 22 -5 35 10 18 20 37 25 37
10z m185 -21 c3 -5 1 -10 -4 -10 -6 0 -11 5 -11 10 0 6 2 10 4 10 3 0 8 -4 11
-10z m157 -26 c-4 -24 -2 -26 19 -19 18 5 21 4 13 -4 -11 -12 -74 -4 -74 10 0
6 39 39 46 39 1 0 -1 -12 -4 -26z m-507 6 c3 -5 1 -10 -4 -10 -6 0 -11 5 -11
10 0 6 2 10 4 10 3 0 8 -4 11 -10z m545 -60 c0 -5 -5 -10 -11 -10 -5 0 -7 5
-4 10 3 6 8 10 11 10 2 0 4 -4 4 -10z m10 -50 c0 -5 -2 -10 -4 -10 -3 0 -8 5
-11 10 -3 6 -1 10 4 10 6 0 11 -4 11 -10z m-495 -60 c3 -6 -1 -7 -9 -4 -18 7
-21 14 -7 14 6 0 13 -4 16 -10z m545 -50 c0 -5 -6 -10 -14 -10 -8 0 -18 5 -21
10 -3 6 3 10 14 10 12 0 21 -4 21 -10z m-40 -30 c0 -5 -7 -10 -15 -10 -8 0
-15 5 -15 10 0 6 7 10 15 10 8 0 15 -4 15 -10z m158 -101 c-3 -8 -7 -3 -11 10
-4 17 -3 21 5 13 5 -5 8 -16 6 -23z m-568 -9 c0 -5 -5 -10 -11 -10 -5 0 -7 5
-4 10 3 6 8 10 11 10 2 0 4 -4 4 -10z m410 -10 c0 -5 -2 -10 -4 -10 -3 0 -8 5
-11 10 -3 6 -1 10 4 10 6 0 11 -4 11 -10z m-234 -100 c23 -9 35 -50 15 -50
-10 0 -51 62 -50 76 0 5 3 3 6 -4 3 -7 16 -17 29 -22z m94 15 c0 -8 -7 -15
-16 -15 -14 0 -14 3 -4 15 7 8 14 15 16 15 2 0 4 -7 4 -15z m90 -5 c0 -5 -4
-10 -10 -10 -5 0 -10 5 -10 10 0 6 5 10 10 10 6 0 10 -4 10 -10z m-73 -44 c-3
-8 11 -20 34 -30 46 -20 52 -53 18 -87 -18 -18 -20 -25 -10 -40 9 -15 8 -19
-4 -19 -19 0 -19 -19 0 -26 8 -4 15 -12 15 -19 0 -6 9 -20 20 -30 11 -10 20
-26 20 -36 0 -9 6 -19 13 -22 6 -2 8 -8 4 -13 -5 -5 -15 0 -24 11 -15 20 -15
20 -26 1 -17 -28 -46 -56 -57 -56 -5 0 -10 11 -10 25 0 29 -7 31 -29 11 -14
-13 -16 -12 -17 10 -1 13 3 24 10 24 12 0 36 45 36 67 0 8 -7 16 -15 19 -11 5
-12 11 -4 26 15 28 6 44 -13 24 -22 -21 -23 -21 -24 9 -1 14 2 25 7 25 5 0 9
5 9 11 0 8 -5 8 -15 -1 -8 -7 -22 -9 -31 -6 -15 6 -15 8 0 25 17 19 16 20 -18
36 -20 10 -39 22 -42 27 -9 14 37 -1 54 -18 22 -23 34 -16 30 19 -2 25 1 31
13 29 9 -1 22 4 29 13 14 17 34 10 27 -9z m53 -6 c0 -5 -2 -10 -4 -10 -3 0 -8
5 -11 10 -3 6 -1 10 4 10 6 0 11 -4 11 -10z m-146 -169 c-6 -6 -24 19 -24 34
1 6 7 1 15 -9 8 -11 12 -22 9 -25z m196 -11 c0 -5 -2 -10 -4 -10 -3 0 -8 5
-11 10 -3 6 -1 10 4 10 6 0 11 -4 11 -10z m-250 -20 c0 -5 -2 -10 -4 -10 -3 0
-8 5 -11 10 -3 6 -1 10 4 10 6 0 11 -4 11 -10z m95 -11 c11 -17 -1 -21 -15 -4
-8 9 -8 15 -2 15 6 0 14 -5 17 -11z m170 0 c10 -15 -1 -23 -20 -15 -9 3 -13
10 -10 16 8 13 22 13 30 -1z m-200 -39 c3 -5 2 -10 -4 -10 -5 0 -13 5 -16 10
-3 6 -2 10 4 10 5 0 13 -4 16 -10z m165 -117 c0 -10 -42 -53 -52 -53 -15 0 -8
33 10 46 18 14 42 18 42 7z m-113 -1835 c-3 -8 -6 -5 -6 6 -1 11 2 17 5 13 3
-3 4 -12 1 -19z"/>
<path d="M7330 3800 c0 -5 4 -10 8 -10 5 0 13 -10 19 -22 12 -28 23 -10 12 20
-8 22 -39 31 -39 12z"/>
<path d="M7161 3786 c-17 -20 5 -64 22 -47 9 9 8 14 -3 21 -13 8 -12 10 3 10
10 0 17 5 15 12 -6 18 -24 20 -37 4z"/>
<path d="M7026 3781 c-4 -5 -2 -12 3 -15 5 -4 12 -2 15 3 4 5 2 12 -3 15 -5 4
-12 2 -15 -3z"/>
<path d="M7230 3759 c0 -18 2 -19 15 -9 8 7 15 16 15 21 0 5 -7 9 -15 9 -9 0
-15 -9 -15 -21z"/>
<path d="M7381 3724 c-20 -14 -25 -14 -33 -3 -8 11 -8 10 -4 -4 3 -11 9 -30
12 -43 3 -13 13 -24 20 -24 10 0 13 7 8 25 -5 21 -3 25 15 25 22 0 26 7 13 27
-6 10 -13 9 -31 -3z"/>
<path d="M7235 3691 c-3 -5 -1 -12 5 -16 5 -3 10 1 10 9 0 18 -6 21 -15 7z"/>
<path d="M7307 3693 c-4 -3 -7 -12 -7 -20 0 -11 4 -11 20 -3 11 6 18 15 15 21
-7 11 -19 12 -28 2z"/>
<path d="M7060 3670 c0 -5 5 -10 10 -10 6 0 10 5 10 10 0 6 -4 10 -10 10 -5 0
-10 -4 -10 -10z"/>
<path d="M7150 3650 c0 -5 5 -10 11 -10 5 0 7 5 4 10 -3 6 -8 10 -11 10 -2 0
-4 -4 -4 -10z"/>
<path d="M7330 3640 c0 -5 -9 -10 -20 -10 -11 0 -20 -4 -20 -10 0 -14 33 -13
48 2 15 15 16 28 2 28 -5 0 -10 -4 -10 -10z"/>
<path d="M7230 3600 c0 -5 5 -10 10 -10 6 0 10 5 10 10 0 6 -4 10 -10 10 -5 0
-10 -4 -10 -10z"/>
<path d="M7346 3601 c-4 -7 -5 -15 -2 -18 9 -9 19 4 14 18 -4 11 -6 11 -12 0z"/>
<path d="M7380 3570 c0 -5 5 -10 10 -10 6 0 10 5 10 10 0 6 -4 10 -10 10 -5 0
-10 -4 -10 -10z"/>
<path d="M7300 3538 c0 -4 9 -9 20 -13 11 -4 23 -20 28 -38 5 -18 16 -33 25
-35 25 -5 21 21 -7 47 -14 13 -23 28 -20 35 2 6 -6 11 -21 11 -14 0 -25 -3
-25 -7z"/>
<path d="M7127 3523 c-4 -3 -7 -11 -7 -17 0 -6 5 -5 12 2 6 6 9 14 7 17 -3 3
-9 2 -12 -2z"/>
<path d="M7180 3475 c0 -9 5 -15 11 -13 6 2 11 8 11 13 0 5 -5 11 -11 13 -6 2
-11 -4 -11 -13z"/>
<path d="M7255 3411 c-2 -5 4 -11 15 -14 11 -3 20 -2 20 3 0 12 -28 21 -35 11z"/>
<path d="M7376 3213 c-11 -11 -6 -23 9 -23 8 0 15 4 15 9 0 13 -16 22 -24 14z"/>
<path d="M7397 3053 c-17 -17 -5 -31 28 -31 39 0 45 12 16 28 -23 12 -35 13
-44 3z"/>
<path d="M9255 5330 c-3 -5 1 -10 9 -10 9 0 16 5 16 10 0 6 -4 10 -9 10 -6 0
-13 -4 -16 -10z"/>
<path d="M9282 5251 c-16 -9 -5 -41 14 -41 15 0 18 18 6 37 -4 7 -13 9 -20 4z"/>
<path d="M6475 4840 c-3 -5 -2 -10 4 -10 5 0 13 5 16 10 3 6 2 10 -4 10 -5 0
-13 -4 -16 -10z"/>
<path d="M6500 4816 c0 -9 5 -16 10 -16 6 0 10 4 10 9 0 6 -4 13 -10 16 -5 3
-10 -1 -10 -9z"/>
<path d="M6573 4740 c12 -32 27 -40 27 -15 0 8 6 15 13 15 15 1 -23 30 -39 30
-9 0 -10 -7 -1 -30z"/>
<path d="M6540 4681 c0 -5 6 -11 13 -14 8 -3 5 -12 -11 -30 -14 -14 -19 -27
-13 -31 5 -4 12 -2 16 4 3 5 14 10 23 10 24 0 26 40 4 56 -20 16 -32 17 -32 5z"/>
<path d="M6626 4674 c-4 -10 -1 -14 6 -12 15 5 23 28 10 28 -5 0 -13 -7 -16
-16z"/>
<path d="M6685 4590 c4 -6 11 -8 16 -5 14 9 11 15 -7 15 -8 0 -12 -5 -9 -10z"/>
<path d="M6750 4592 c0 -8 10 -27 21 -44 17 -23 19 -32 9 -38 -19 -12 -5 -38
25 -46 31 -8 47 4 23 17 -10 5 -15 16 -12 24 4 8 1 15 -5 15 -6 0 -11 6 -11
13 -1 17 -50 75 -50 59z"/>
<path d="M6575 4580 c-3 -5 -1 -10 4 -10 6 0 11 5 11 10 0 6 -2 10 -4 10 -3 0
-8 -4 -11 -10z"/>
<path d="M6590 4540 c0 -5 5 -10 11 -10 5 0 7 5 4 10 -3 6 -8 10 -11 10 -2 0
-4 -4 -4 -10z"/>
<path d="M6732 4518 c-17 -17 -15 -36 7 -47 16 -9 18 -7 17 19 -2 35 -9 43
-24 28z"/>
<path d="M6896 4405 c-11 -8 -16 -18 -11 -22 4 -5 10 -2 12 5 3 6 11 12 19 12
8 0 14 5 14 10 0 14 -11 12 -34 -5z"/>
<path d="M6940 4370 c0 -5 5 -10 10 -10 6 0 10 5 10 10 0 6 -4 10 -10 10 -5 0
-10 -4 -10 -10z"/>
<path d="M5700 4044 c-19 -8 -56 -16 -82 -18 -26 -2 -55 -9 -64 -17 -12 -10
-17 -10 -23 0 -7 10 -9 10 -13 -1 -3 -7 -27 -19 -54 -26 -27 -7 -57 -18 -66
-23 -10 -5 -24 -9 -32 -9 -7 0 -20 -7 -27 -17 -13 -15 -10 -15 36 -9 28 5 82
18 120 30 39 13 106 33 150 46 108 30 127 38 120 50 -8 13 -23 12 -65 -6z"/>
<path d="M5220 3900 c0 -5 11 -10 24 -10 14 0 28 5 31 10 4 6 -7 10 -24 10
-17 0 -31 -4 -31 -10z"/>
</g>
</svg>
